<svg xmlns="http://www.w3.org/2000/svg" width="41" height="41" fill="none"><g fill="#009C37" clip-path="url(#a)"><path d="M39.106 34.535a1.562 1.562 0 1 0 0-3.124h-4.297v-4.297a1.562 1.562 0 0 0-3.124 0v4.297h-4.297a1.562 1.562 0 0 0 0 3.124h4.297v4.297a1.562 1.562 0 1 0 3.124 0v-4.297h4.297Z"/><path d="M23.83 26.617a14.832 14.832 0 0 0-3.117-1.663 7.952 7.952 0 0 0 2.586-5.246 11.64 11.64 0 0 1 8.195-3.326c2.42 0 4.742.728 6.718 2.106a1.562 1.562 0 1 0 1.787-2.563 14.852 14.852 0 0 0-3.117-1.663 7.949 7.949 0 0 0 2.614-5.895c0-4.394-3.574-7.968-7.968-7.968-4.393 0-7.967 3.574-7.967 7.968 0 2.324 1 4.42 2.594 5.877a14.839 14.839 0 0 0-3.402 1.848c-1.179-2.928-4.049-5-7.395-5-4.393 0-7.967 3.573-7.967 7.967 0 2.318.995 4.407 2.58 5.864-4.238 1.588-7.674 4.999-9.073 9.348a4.642 4.642 0 0 0 .674 4.197 4.64 4.64 0 0 0 3.788 1.926h13.592a1.562 1.562 0 0 0 0-3.125H5.36c-.505 0-.966-.234-1.263-.642a1.548 1.548 0 0 1-.225-1.4c1.544-4.8 6.254-8.153 11.452-8.153 2.42 0 4.742.728 6.718 2.106a1.562 1.562 0 1 0 1.787-2.563Zm7.698-23.093a4.848 4.848 0 0 1 4.843 4.843 4.849 4.849 0 0 1-4.843 4.843 4.849 4.849 0 0 1-4.843-4.843 4.849 4.849 0 0 1 4.843-4.843Zm-16.17 10.692a4.849 4.849 0 0 1 4.844 4.843 4.849 4.849 0 0 1-4.844 4.843 4.848 4.848 0 0 1-4.843-4.843 4.849 4.849 0 0 1 4.843-4.844Z"/></g><defs><clipPath id="a"><path fill="#fff" d="M.668.399h40v40h-40z"/></clipPath></defs></svg>