<svg width="189" height="56" viewBox="0 0 168 56" fill="none" xmlns="http://www.w3.org/2000/svg"><rect width="189" height="56" fill="#0C0D10"></rect><path d="M114.135 26.8813V30.0887H112.125V32.1921H114.135V39.3391C114.135 41.7795 115.239 42.7557 118.017 42.7557C118.505 42.7557 118.97 42.6976 119.376 42.6279V40.5477C119.028 40.5826 118.807 40.6058 118.424 40.6058C117.18 40.6058 116.634 40.0248 116.634 38.6999V32.1921H119.376V30.0887H116.634V26.8813H114.135Z" fill="white"></path><path d="M126.452 42.93C130.147 42.93 132.413 40.4547 132.413 36.3525C132.413 32.2735 130.136 29.7866 126.452 29.7866C122.756 29.7866 120.479 32.2735 120.479 36.3525C120.479 40.4547 122.745 42.93 126.452 42.93ZM126.452 40.7104C124.279 40.7104 123.059 39.1183 123.059 36.3525C123.059 33.6099 124.279 32.0062 126.452 32.0062C128.613 32.0062 129.845 33.6099 129.845 36.3525C129.845 39.1067 128.613 40.7104 126.452 40.7104Z" fill="white"></path><path d="M134.352 42.686H136.851V35.2136C136.851 33.4356 138.187 32.2386 140.082 32.2386C140.523 32.2386 141.267 32.32 141.476 32.3897V29.926C141.209 29.8563 140.732 29.8214 140.36 29.8214C138.71 29.8214 137.304 30.7279 136.944 31.9713H136.758V30.0306H134.352V42.686Z" fill="white"></path><path d="M147.68 31.9132C149.528 31.9132 150.736 33.2032 150.794 35.1904H144.403C144.542 33.2148 145.832 31.9132 147.68 31.9132ZM150.783 39.2694C150.318 40.2572 149.284 40.8034 147.773 40.8034C145.774 40.8034 144.484 39.3972 144.403 37.1776V37.0381H153.339V36.1666C153.339 32.1921 151.213 29.7866 147.692 29.7866C144.124 29.7866 141.858 32.3548 141.858 36.399C141.858 40.4431 144.077 42.93 147.703 42.93C150.597 42.93 152.619 41.5355 153.188 39.2694H150.783Z" fill="white"></path><path d="M97.7504 38.0126C97.9431 41.1201 100.533 43.1076 104.387 43.1076C108.506 43.1076 111.084 41.0238 111.084 37.6994C111.084 35.0856 109.615 33.6402 106.049 32.8091L104.134 32.3394C101.87 31.8094 100.954 31.0988 100.954 29.8581C100.954 28.2923 102.376 27.2685 104.508 27.2685C106.531 27.2685 107.928 28.2682 108.181 29.8702H110.807C110.65 26.9433 108.073 24.8836 104.544 24.8836C100.75 24.8836 98.2201 26.9433 98.2201 30.0388C98.2201 32.5923 99.6535 34.11 102.797 34.8447L105.038 35.3868C107.338 35.9288 108.35 36.7237 108.35 38.0487C108.35 39.5904 106.76 40.7106 104.592 40.7106C102.267 40.7106 100.653 39.6627 100.424 38.0126H97.7504Z" fill="white"></path><path d="M71.8681 29.8214C70.1482 29.8214 68.6607 30.6814 67.8937 32.1224H67.7077V30.0306H65.3022V46.8928H67.8007V40.7685H67.9983C68.6607 42.1049 70.0901 42.8952 71.8913 42.8952C75.0871 42.8952 77.1208 40.3734 77.1208 36.3525C77.1208 32.3316 75.0871 29.8214 71.8681 29.8214ZM71.1592 40.6523C69.0674 40.6523 67.7542 39.0021 67.7542 36.3641C67.7542 33.7145 69.0674 32.0643 71.1708 32.0643C73.2859 32.0643 74.5526 33.6796 74.5526 36.3525C74.5526 39.037 73.2859 40.6523 71.1592 40.6523Z" fill="white"></path><path d="M85.8636 29.8214C84.1437 29.8214 82.6562 30.6814 81.8892 32.1224H81.7032V30.0306H79.2977V46.8928H81.7962V40.7685H81.9938C82.6562 42.1049 84.0856 42.8952 85.8868 42.8952C89.0826 42.8952 91.1163 40.3734 91.1163 36.3525C91.1163 32.3316 89.0826 29.8214 85.8636 29.8214ZM85.1547 40.6523C83.0629 40.6523 81.7497 39.0021 81.7497 36.3641C81.7497 33.7145 83.0629 32.0643 85.1663 32.0643C87.2814 32.0643 88.5481 33.6796 88.5481 36.3525C88.5481 39.037 87.2814 40.6523 85.1547 40.6523Z" fill="white"></path><path d="M60.8194 42.686H63.6861L57.4107 25.3052H54.5078L48.2324 42.686H51.0028L52.6047 38.0728H59.2294L60.8194 42.686ZM55.8207 28.4609H56.0255L58.5429 35.8083H53.2913L55.8207 28.4609Z" fill="white"></path><path d="M49.9121 12.1953V20.5799H52.9394C55.4379 20.5799 56.8848 19.0401 56.8848 16.3615C56.8848 13.7235 55.4263 12.1953 52.9394 12.1953H49.9121ZM51.2137 13.3807H52.7941C54.5315 13.3807 55.56 14.4847 55.56 16.3789C55.56 18.3022 54.5489 19.3946 52.7941 19.3946H51.2137V13.3807Z" fill="white"></path><path d="M61.3159 20.702C63.1636 20.702 64.2967 19.4643 64.2967 17.4132C64.2967 15.3737 63.1578 14.1302 61.3159 14.1302C59.4681 14.1302 58.3293 15.3737 58.3293 17.4132C58.3293 19.4643 59.4623 20.702 61.3159 20.702ZM61.3159 19.5921C60.2293 19.5921 59.6192 18.7961 59.6192 17.4132C59.6192 16.0419 60.2293 15.24 61.3159 15.24C62.3967 15.24 63.0126 16.0419 63.0126 17.4132C63.0126 18.7903 62.3967 19.5921 61.3159 19.5921Z" fill="white"></path><path d="M73.9457 14.2522H72.6964L71.5692 19.0808H71.4704L70.1688 14.2522H68.9719L67.6703 19.0808H67.5773L66.4443 14.2522H65.1776L66.9207 20.5799H68.2049L69.5064 15.9199H69.6052L70.9126 20.5799H72.2083L73.9457 14.2522Z" fill="white"></path><path d="M75.3844 20.5799H76.6337V16.8786C76.6337 15.8908 77.2205 15.2749 78.1444 15.2749C79.0683 15.2749 79.5099 15.7804 79.5099 16.7973V20.5799H80.7591V16.4835C80.7591 14.9786 79.9805 14.1302 78.5686 14.1302C77.6156 14.1302 76.9881 14.5544 76.6801 15.2575H76.5872V14.2522H75.3844V20.5799Z" fill="white"></path><path d="M82.7266 20.5799H83.9759V11.7828H82.7266V20.5799Z" fill="white"></path><path d="M88.6743 20.702C90.522 20.702 91.6551 19.4643 91.6551 17.4132C91.6551 15.3737 90.5162 14.1302 88.6743 14.1302C86.8265 14.1302 85.6876 15.3737 85.6876 17.4132C85.6876 19.4643 86.8207 20.702 88.6743 20.702ZM88.6743 19.5921C87.5877 19.5921 86.9776 18.7961 86.9776 17.4132C86.9776 16.0419 87.5877 15.24 88.6743 15.24C89.755 15.24 90.3709 16.0419 90.3709 17.4132C90.3709 18.7903 89.755 19.5921 88.6743 19.5921Z" fill="white"></path><path d="M95.3773 19.6328C94.6975 19.6328 94.2036 19.3016 94.2036 18.7322C94.2036 18.1744 94.5987 17.878 95.4703 17.8199L97.0159 17.7211V18.2499C97.0159 19.0343 96.3186 19.6328 95.3773 19.6328ZM95.0577 20.6845C95.8886 20.6845 96.5801 20.3243 96.9578 19.6909H97.0566V20.5799H98.2593V16.2569C98.2593 14.9205 97.3645 14.1302 95.7782 14.1302C94.343 14.1302 93.3204 14.8275 93.1926 15.9141H94.4011C94.5406 15.4667 95.0229 15.211 95.7201 15.211C96.5743 15.211 97.0159 15.5887 97.0159 16.2569V16.8031L95.3018 16.9019C93.7968 16.9948 92.9485 17.6514 92.9485 18.7903C92.9485 19.9466 93.8375 20.6845 95.0577 20.6845Z" fill="white"></path><path d="M102.499 20.6845C103.37 20.6845 104.108 20.272 104.486 19.5805H104.585V20.5799H105.782V11.7828H104.532V15.2575H104.439C104.097 14.5602 103.364 14.1477 102.499 14.1477C100.901 14.1477 99.8724 15.4144 99.8724 17.4132C99.8724 19.4178 100.889 20.6845 102.499 20.6845ZM102.853 15.2691C103.899 15.2691 104.556 16.1 104.556 17.419C104.556 18.7438 103.905 19.5631 102.853 19.5631C101.796 19.5631 101.162 18.7554 101.162 17.4132C101.162 16.0826 101.801 15.2691 102.853 15.2691Z" fill="white"></path><path d="M113.883 20.702C115.73 20.702 116.864 19.4643 116.864 17.4132C116.864 15.3737 115.725 14.1302 113.883 14.1302C112.035 14.1302 110.896 15.3737 110.896 17.4132C110.896 19.4643 112.029 20.702 113.883 20.702ZM113.883 19.5921C112.796 19.5921 112.186 18.7961 112.186 17.4132C112.186 16.0419 112.796 15.24 113.883 15.24C114.964 15.24 115.579 16.0419 115.579 17.4132C115.579 18.7903 114.964 19.5921 113.883 19.5921Z" fill="white"></path><path d="M118.517 20.5799H119.767V16.8786C119.767 15.8908 120.353 15.2749 121.277 15.2749C122.201 15.2749 122.643 15.7804 122.643 16.7973V20.5799H123.892V16.4835C123.892 14.9786 123.113 14.1302 121.701 14.1302C120.748 14.1302 120.121 14.5544 119.813 15.2575H119.72V14.2522H118.517V20.5799Z" fill="white"></path><path d="M129.646 12.6776V14.2813H128.64V15.333H129.646V18.9065C129.646 20.1267 130.198 20.6148 131.586 20.6148C131.83 20.6148 132.063 20.5857 132.266 20.5509V19.5108C132.092 19.5282 131.981 19.5398 131.79 19.5398C131.168 19.5398 130.895 19.2493 130.895 18.5869V15.333H132.266V14.2813H130.895V12.6776H129.646Z" fill="white"></path><path d="M133.943 20.5799H135.192V16.8844C135.192 15.9257 135.762 15.2807 136.784 15.2807C137.668 15.2807 138.138 15.792 138.138 16.8031V20.5799H139.388V16.4951C139.388 14.9902 138.557 14.136 137.209 14.136C136.256 14.136 135.587 14.5602 135.28 15.2691H135.181V11.7828H133.943V20.5799Z" fill="white"></path><path d="M143.894 15.1936C144.818 15.1936 145.422 15.8385 145.451 16.8321H142.256C142.325 15.8443 142.97 15.1936 143.894 15.1936ZM145.446 18.8716C145.213 19.3655 144.696 19.6386 143.941 19.6386C142.941 19.6386 142.296 18.9355 142.256 17.8257V17.756H146.724V17.3202C146.724 15.333 145.661 14.1302 143.9 14.1302C142.116 14.1302 140.983 15.4144 140.983 17.4364C140.983 19.4585 142.093 20.702 143.906 20.702C145.353 20.702 146.364 20.0047 146.648 18.8716H145.446Z" fill="white"></path><path d="M34.6772 28.4211C34.7075 26.0677 35.9714 23.8409 37.9764 22.6083C36.7115 20.8018 34.5929 19.6565 32.3887 19.5875C30.0378 19.3407 27.7587 20.9943 26.5607 20.9943C25.3395 20.9943 23.495 19.612 21.5088 19.6529C18.9198 19.7365 16.5063 21.2085 15.2467 23.4719C12.5391 28.1597 14.5587 35.0491 17.1524 38.8384C18.45 40.6939 19.9666 42.7665 21.951 42.693C23.8929 42.6125 24.6182 41.4548 26.9622 41.4548C29.2845 41.4548 29.9649 42.693 31.9896 42.6463C34.0733 42.6125 35.3862 40.7826 36.6383 38.9095C37.5707 37.5874 38.2881 36.1262 38.7641 34.58C36.3153 33.5443 34.68 31.0799 34.6772 28.4211Z" fill="white"></path><path d="M30.8528 17.0955C31.989 15.7316 32.5487 13.9786 32.4132 12.2086C30.6774 12.3909 29.074 13.2205 27.9226 14.5321C26.7966 15.8136 26.2106 17.5358 26.3214 19.238C28.0578 19.2559 29.7648 18.4488 30.8528 17.0955Z" fill="white"></path></svg>