<svg xmlns="http://www.w3.org/2000/svg" xml:space="preserve" width="1147" height="1147"><path fill="#FFF" d="M0 0h1147v1147H0z"/><path d="M0 0h100v100H0z" style="fill:#000" transform="matrix(.31 0 0 .31 310 62)"/><path d="M0 0h100v100H0z" style="fill:#000" transform="matrix(.31 0 0 .31 372 62)"/><path d="M0 0h100v100H0z" style="fill:#000" transform="matrix(.31 0 0 .31 403 62)"/><path d="M0 0h100v100H0z" style="fill:#000" transform="matrix(.31 0 0 .31 465 62)"/><path d="M0 0h100v100H0z" style="fill:#000" transform="matrix(.31 0 0 .31 589 62)"/><path d="M0 0h100v100H0z" style="fill:#000" transform="matrix(.31 0 0 .31 620 62)"/><path d="M0 0h100v100H0z" style="fill:#000" transform="matrix(.31 0 0 .31 651 62)"/><path d="M0 0h100v100H0z" style="fill:#000" transform="matrix(.31 0 0 .31 682 62)"/><path d="M0 0h100v100H0z" style="fill:#000" transform="matrix(.31 0 0 .31 775 62)"/><path d="M0 0h100v100H0z" style="fill:#000" transform="matrix(.31 0 0 .31 310 93)"/><path d="M0 0h100v100H0z" style="fill:#000" transform="matrix(.31 0 0 .31 403 93)"/><path d="M0 0h100v100H0z" style="fill:#000" transform="matrix(.31 0 0 .31 434 93)"/><path d="M0 0h100v100H0z" style="fill:#000" transform="matrix(.31 0 0 .31 465 93)"/><path d="M0 0h100v100H0z" style="fill:#000" transform="matrix(.31 0 0 .31 620 93)"/><path d="M0 0h100v100H0z" style="fill:#000" transform="matrix(.31 0 0 .31 775 93)"/><path d="M0 0h100v100H0z" style="fill:#000" transform="matrix(.31 0 0 .31 341 124)"/><path d="M0 0h100v100H0z" style="fill:#000" transform="matrix(.31 0 0 .31 372 124)"/><path d="M0 0h100v100H0z" style="fill:#000" transform="matrix(.31 0 0 .31 434 124)"/><path d="M0 0h100v100H0z" style="fill:#000" transform="matrix(.31 0 0 .31 558 124)"/><path d="M0 0h100v100H0z" style="fill:#000" transform="matrix(.31 0 0 .31 589 124)"/><path d="M0 0h100v100H0z" style="fill:#000" transform="matrix(.31 0 0 .31 682 124)"/><path d="M0 0h100v100H0z" style="fill:#000" transform="matrix(.31 0 0 .31 744 124)"/><path d="M0 0h100v100H0z" style="fill:#000" transform="matrix(.31 0 0 .31 775 124)"/><path d="M0 0h100v100H0z" style="fill:#000" transform="matrix(.31 0 0 .31 806 124)"/><path d="M0 0h100v100H0z" style="fill:#000" transform="matrix(.31 0 0 .31 310 155)"/><path d="M0 0h100v100H0z" style="fill:#000" transform="matrix(.31 0 0 .31 341 155)"/><path d="M0 0h100v100H0z" style="fill:#000" transform="matrix(.31 0 0 .31 403 155)"/><path d="M0 0h100v100H0z" style="fill:#000" transform="matrix(.31 0 0 .31 434 155)"/><path d="M0 0h100v100H0z" style="fill:#000" transform="matrix(.31 0 0 .31 496 155)"/><path d="M0 0h100v100H0z" style="fill:#000" transform="matrix(.31 0 0 .31 527 155)"/><path d="M0 0h100v100H0z" style="fill:#000" transform="matrix(.31 0 0 .31 558 155)"/><path d="M0 0h100v100H0z" style="fill:#000" transform="matrix(.31 0 0 .31 651 155)"/><path d="M0 0h100v100H0z" style="fill:#000" transform="matrix(.31 0 0 .31 682 155)"/><path d="M0 0h100v100H0z" style="fill:#000" transform="matrix(.31 0 0 .31 775 155)"/><path d="M0 0h100v100H0z" style="fill:#000" transform="matrix(.31 0 0 .31 341 186)"/><path d="M0 0h100v100H0z" style="fill:#000" transform="matrix(.31 0 0 .31 372 186)"/><path d="M0 0h100v100H0z" style="fill:#000" transform="matrix(.31 0 0 .31 403 186)"/><path d="M0 0h100v100H0z" style="fill:#000" transform="matrix(.31 0 0 .31 465 186)"/><path d="M0 0h100v100H0z" style="fill:#000" transform="matrix(.31 0 0 .31 496 186)"/><path d="M0 0h100v100H0z" style="fill:#000" transform="matrix(.31 0 0 .31 682 186)"/><path d="M0 0h100v100H0z" style="fill:#000" transform="matrix(.31 0 0 .31 744 186)"/><path d="M0 0h100v100H0z" style="fill:#000" transform="matrix(.31 0 0 .31 372 217)"/><path d="M0 0h100v100H0z" style="fill:#000" transform="matrix(.31 0 0 .31 434 217)"/><path d="M0 0h100v100H0z" style="fill:#000" transform="matrix(.31 0 0 .31 496 217)"/><path d="M0 0h100v100H0z" style="fill:#000" transform="matrix(.31 0 0 .31 620 217)"/><path d="M0 0h100v100H0z" style="fill:#000" transform="matrix(.31 0 0 .31 651 217)"/><path d="M0 0h100v100H0z" style="fill:#000" transform="matrix(.31 0 0 .31 682 217)"/><path d="M0 0h100v100H0z" style="fill:#000" transform="matrix(.31 0 0 .31 744 217)"/><path d="M0 0h100v100H0z" style="fill:#000" transform="matrix(.31 0 0 .31 806 217)"/><path d="M0 0h100v100H0z" style="fill:#000" transform="matrix(.31 0 0 .31 310 248)"/><path d="M0 0h100v100H0z" style="fill:#000" transform="matrix(.31 0 0 .31 372 248)"/><path d="M0 0h100v100H0z" style="fill:#000" transform="matrix(.31 0 0 .31 434 248)"/><path d="M0 0h100v100H0z" style="fill:#000" transform="matrix(.31 0 0 .31 496 248)"/><path d="M0 0h100v100H0z" style="fill:#000" transform="matrix(.31 0 0 .31 558 248)"/><path d="M0 0h100v100H0z" style="fill:#000" transform="matrix(.31 0 0 .31 620 248)"/><path d="M0 0h100v100H0z" style="fill:#000" transform="matrix(.31 0 0 .31 682 248)"/><path d="M0 0h100v100H0z" style="fill:#000" transform="matrix(.31 0 0 .31 744 248)"/><path d="M0 0h100v100H0z" style="fill:#000" transform="matrix(.31 0 0 .31 806 248)"/><path d="M0 0h100v100H0z" style="fill:#000" transform="matrix(.31 0 0 .31 310 279)"/><path d="M0 0h100v100H0z" style="fill:#000" transform="matrix(.31 0 0 .31 341 279)"/><path d="M0 0h100v100H0z" style="fill:#000" transform="matrix(.31 0 0 .31 372 279)"/><path d="M0 0h100v100H0z" style="fill:#000" transform="matrix(.31 0 0 .31 403 279)"/><path d="M0 0h100v100H0z" style="fill:#000" transform="matrix(.31 0 0 .31 589 279)"/><path d="M0 0h100v100H0z" style="fill:#000" transform="matrix(.31 0 0 .31 620 279)"/><path d="M0 0h100v100H0z" style="fill:#000" transform="matrix(.31 0 0 .31 682 279)"/><path d="M0 0h100v100H0z" style="fill:#000" transform="matrix(.31 0 0 .31 744 279)"/><path d="M0 0h100v100H0z" style="fill:#000" transform="matrix(.31 0 0 .31 775 279)"/><path d="M0 0h100v100H0z" style="fill:#000" transform="matrix(.31 0 0 .31 806 279)"/><path d="M0 0h100v100H0z" style="fill:#000" transform="matrix(.31 0 0 .31 62 310)"/><path d="M0 0h100v100H0z" style="fill:#000" transform="matrix(.31 0 0 .31 124 310)"/><path d="M0 0h100v100H0z" style="fill:#000" transform="matrix(.31 0 0 .31 155 310)"/><path d="M0 0h100v100H0z" style="fill:#000" transform="matrix(.31 0 0 .31 217 310)"/><path d="M0 0h100v100H0z" style="fill:#000" transform="matrix(.31 0 0 .31 248 310)"/><path d="M0 0h100v100H0z" style="fill:#000" transform="matrix(.31 0 0 .31 279 310)"/><path d="M0 0h100v100H0z" style="fill:#000" transform="matrix(.31 0 0 .31 341 310)"/><path d="M0 0h100v100H0z" style="fill:#000" transform="matrix(.31 0 0 .31 372 310)"/><path d="M0 0h100v100H0z" style="fill:#000" transform="matrix(.31 0 0 .31 403 310)"/><path d="M0 0h100v100H0z" style="fill:#000" transform="matrix(.31 0 0 .31 434 310)"/><path d="M0 0h100v100H0z" style="fill:#000" transform="matrix(.31 0 0 .31 496 310)"/><path d="M0 0h100v100H0z" style="fill:#000" transform="matrix(.31 0 0 .31 589 310)"/><path d="M0 0h100v100H0z" style="fill:#000" transform="matrix(.31 0 0 .31 651 310)"/><path d="M0 0h100v100H0z" style="fill:#000" transform="matrix(.31 0 0 .31 713 310)"/><path d="M0 0h100v100H0z" style="fill:#000" transform="matrix(.31 0 0 .31 868 310)"/><path d="M0 0h100v100H0z" style="fill:#000" transform="matrix(.31 0 0 .31 961 310)"/><path d="M0 0h100v100H0z" style="fill:#000" transform="matrix(.31 0 0 .31 1023 310)"/><path d="M0 0h100v100H0z" style="fill:#000" transform="matrix(.31 0 0 .31 1054 310)"/><path d="M0 0h100v100H0z" style="fill:#000" transform="matrix(.31 0 0 .31 93 341)"/><path d="M0 0h100v100H0z" style="fill:#000" transform="matrix(.31 0 0 .31 186 341)"/><path d="M0 0h100v100H0z" style="fill:#000" transform="matrix(.31 0 0 .31 217 341)"/><path d="M0 0h100v100H0z" style="fill:#000" transform="matrix(.31 0 0 .31 279 341)"/><path d="M0 0h100v100H0z" style="fill:#000" transform="matrix(.31 0 0 .31 372 341)"/><path d="M0 0h100v100H0z" style="fill:#000" transform="matrix(.31 0 0 .31 403 341)"/><path d="M0 0h100v100H0z" style="fill:#000" transform="matrix(.31 0 0 .31 434 341)"/><path d="M0 0h100v100H0z" style="fill:#000" transform="matrix(.31 0 0 .31 558 341)"/><path d="M0 0h100v100H0z" style="fill:#000" transform="matrix(.31 0 0 .31 620 341)"/><path d="M0 0h100v100H0z" style="fill:#000" transform="matrix(.31 0 0 .31 651 341)"/><path d="M0 0h100v100H0z" style="fill:#000" transform="matrix(.31 0 0 .31 682 341)"/><path d="M0 0h100v100H0z" style="fill:#000" transform="matrix(.31 0 0 .31 744 341)"/><path d="M0 0h100v100H0z" style="fill:#000" transform="matrix(.31 0 0 .31 775 341)"/><path d="M0 0h100v100H0z" style="fill:#000" transform="matrix(.31 0 0 .31 806 341)"/><path d="M0 0h100v100H0z" style="fill:#000" transform="matrix(.31 0 0 .31 868 341)"/><path d="M0 0h100v100H0z" style="fill:#000" transform="matrix(.31 0 0 .31 899 341)"/><path d="M0 0h100v100H0z" style="fill:#000" transform="matrix(.31 0 0 .31 961 341)"/><path d="M0 0h100v100H0z" style="fill:#000" transform="matrix(.31 0 0 .31 992 341)"/><path d="M0 0h100v100H0z" style="fill:#000" transform="matrix(.31 0 0 .31 1023 341)"/><path d="M0 0h100v100H0z" style="fill:#000" transform="matrix(.31 0 0 .31 1054 341)"/><path d="M0 0h100v100H0z" style="fill:#000" transform="matrix(.31 0 0 .31 62 372)"/><path d="M0 0h100v100H0z" style="fill:#000" transform="matrix(.31 0 0 .31 124 372)"/><path d="M0 0h100v100H0z" style="fill:#000" transform="matrix(.31 0 0 .31 155 372)"/><path d="M0 0h100v100H0z" style="fill:#000" transform="matrix(.31 0 0 .31 186 372)"/><path d="M0 0h100v100H0z" style="fill:#000" transform="matrix(.31 0 0 .31 217 372)"/><path d="M0 0h100v100H0z" style="fill:#000" transform="matrix(.31 0 0 .31 248 372)"/><path d="M0 0h100v100H0z" style="fill:#000" transform="matrix(.31 0 0 .31 279 372)"/><path d="M0 0h100v100H0z" style="fill:#000" transform="matrix(.31 0 0 .31 310 372)"/><path d="M0 0h100v100H0z" style="fill:#000" transform="matrix(.31 0 0 .31 372 372)"/><path d="M0 0h100v100H0z" style="fill:#000" transform="matrix(.31 0 0 .31 434 372)"/><path d="M0 0h100v100H0z" style="fill:#000" transform="matrix(.31 0 0 .31 496 372)"/><path d="M0 0h100v100H0z" style="fill:#000" transform="matrix(.31 0 0 .31 589 372)"/><path d="M0 0h100v100H0z" style="fill:#000" transform="matrix(.31 0 0 .31 775 372)"/><path d="M0 0h100v100H0z" style="fill:#000" transform="matrix(.31 0 0 .31 806 372)"/><path d="M0 0h100v100H0z" style="fill:#000" transform="matrix(.31 0 0 .31 899 372)"/><path d="M0 0h100v100H0z" style="fill:#000" transform="matrix(.31 0 0 .31 930 372)"/><path d="M0 0h100v100H0z" style="fill:#000" transform="matrix(.31 0 0 .31 961 372)"/><path d="M0 0h100v100H0z" style="fill:#000" transform="matrix(.31 0 0 .31 1023 372)"/><path d="M0 0h100v100H0z" style="fill:#000" transform="matrix(.31 0 0 .31 1054 372)"/><path d="M0 0h100v100H0z" style="fill:#000" transform="matrix(.31 0 0 .31 62 403)"/><path d="M0 0h100v100H0z" style="fill:#000" transform="matrix(.31 0 0 .31 93 403)"/><path d="M0 0h100v100H0z" style="fill:#000" transform="matrix(.31 0 0 .31 124 403)"/><path d="M0 0h100v100H0z" style="fill:#000" transform="matrix(.31 0 0 .31 155 403)"/><path d="M0 0h100v100H0z" style="fill:#000" transform="matrix(.31 0 0 .31 341 403)"/><path d="M0 0h100v100H0z" style="fill:#000" transform="matrix(.31 0 0 .31 372 403)"/><path d="M0 0h100v100H0z" style="fill:#000" transform="matrix(.31 0 0 .31 403 403)"/><path d="M0 0h100v100H0z" style="fill:#000" transform="matrix(.31 0 0 .31 434 403)"/><path d="M0 0h100v100H0z" style="fill:#000" transform="matrix(.31 0 0 .31 465 403)"/><path d="M0 0h100v100H0z" style="fill:#000" transform="matrix(.31 0 0 .31 496 403)"/><path d="M0 0h100v100H0z" style="fill:#000" transform="matrix(.31 0 0 .31 558 403)"/><path d="M0 0h100v100H0z" style="fill:#000" transform="matrix(.31 0 0 .31 620 403)"/><path d="M0 0h100v100H0z" style="fill:#000" transform="matrix(.31 0 0 .31 775 403)"/><path d="M0 0h100v100H0z" style="fill:#000" transform="matrix(.31 0 0 .31 899 403)"/><path d="M0 0h100v100H0z" style="fill:#000" transform="matrix(.31 0 0 .31 961 403)"/><path d="M0 0h100v100H0z" style="fill:#000" transform="matrix(.31 0 0 .31 1054 403)"/><path d="M0 0h100v100H0z" style="fill:#000" transform="matrix(.31 0 0 .31 62 434)"/><path d="M0 0h100v100H0z" style="fill:#000" transform="matrix(.31 0 0 .31 155 434)"/><path d="M0 0h100v100H0z" style="fill:#000" transform="matrix(.31 0 0 .31 186 434)"/><path d="M0 0h100v100H0z" style="fill:#000" transform="matrix(.31 0 0 .31 217 434)"/><path d="M0 0h100v100H0z" style="fill:#000" transform="matrix(.31 0 0 .31 248 434)"/><path d="M0 0h100v100H0z" style="fill:#000" transform="matrix(.31 0 0 .31 341 434)"/><path d="M0 0h100v100H0z" style="fill:#000" transform="matrix(.31 0 0 .31 403 434)"/><path d="M0 0h100v100H0z" style="fill:#000" transform="matrix(.31 0 0 .31 527 434)"/><path d="M0 0h100v100H0z" style="fill:#000" transform="matrix(.31 0 0 .31 620 434)"/><path d="M0 0h100v100H0z" style="fill:#000" transform="matrix(.31 0 0 .31 837 434)"/><path d="M0 0h100v100H0z" style="fill:#000" transform="matrix(.31 0 0 .31 899 434)"/><path d="M0 0h100v100H0z" style="fill:#000" transform="matrix(.31 0 0 .31 930 434)"/><path d="M0 0h100v100H0z" style="fill:#000" transform="matrix(.31 0 0 .31 961 434)"/><path d="M0 0h100v100H0z" style="fill:#000" transform="matrix(.31 0 0 .31 1023 434)"/><path d="M0 0h100v100H0z" style="fill:#000" transform="matrix(.31 0 0 .31 1054 434)"/><path d="M0 0h100v100H0z" style="fill:#000" transform="matrix(.31 0 0 .31 62 465)"/><path d="M0 0h100v100H0z" style="fill:#000" transform="matrix(.31 0 0 .31 93 465)"/><path d="M0 0h100v100H0z" style="fill:#000" transform="matrix(.31 0 0 .31 186 465)"/><path d="M0 0h100v100H0z" style="fill:#000" transform="matrix(.31 0 0 .31 279 465)"/><path d="M0 0h100v100H0z" style="fill:#000" transform="matrix(.31 0 0 .31 310 465)"/><path d="M0 0h100v100H0z" style="fill:#000" transform="matrix(.31 0 0 .31 341 465)"/><path d="M0 0h100v100H0z" style="fill:#000" transform="matrix(.31 0 0 .31 372 465)"/><path d="M0 0h100v100H0z" style="fill:#000" transform="matrix(.31 0 0 .31 434 465)"/><path d="M0 0h100v100H0z" style="fill:#000" transform="matrix(.31 0 0 .31 558 465)"/><path d="M0 0h100v100H0z" style="fill:#000" transform="matrix(.31 0 0 .31 620 465)"/><path d="M0 0h100v100H0z" style="fill:#000" transform="matrix(.31 0 0 .31 744 465)"/><path d="M0 0h100v100H0z" style="fill:#000" transform="matrix(.31 0 0 .31 899 465)"/><path d="M0 0h100v100H0z" style="fill:#000" transform="matrix(.31 0 0 .31 961 465)"/><path d="M0 0h100v100H0z" style="fill:#000" transform="matrix(.31 0 0 .31 1023 465)"/><path d="M0 0h100v100H0z" style="fill:#000" transform="matrix(.31 0 0 .31 93 496)"/><path d="M0 0h100v100H0z" style="fill:#000" transform="matrix(.31 0 0 .31 186 496)"/><path d="M0 0h100v100H0z" style="fill:#000" transform="matrix(.31 0 0 .31 217 496)"/><path d="M0 0h100v100H0z" style="fill:#000" transform="matrix(.31 0 0 .31 248 496)"/><path d="M0 0h100v100H0z" style="fill:#000" transform="matrix(.31 0 0 .31 310 496)"/><path d="M0 0h100v100H0z" style="fill:#000" transform="matrix(.31 0 0 .31 341 496)"/><path d="M0 0h100v100H0z" style="fill:#000" transform="matrix(.31 0 0 .31 372 496)"/><path d="M0 0h100v100H0z" style="fill:#000" transform="matrix(.31 0 0 .31 403 496)"/><path d="M0 0h100v100H0z" style="fill:#000" transform="matrix(.31 0 0 .31 434 496)"/><path d="M0 0h100v100H0z" style="fill:#000" transform="matrix(.31 0 0 .31 527 496)"/><path d="M0 0h100v100H0z" style="fill:#000" transform="matrix(.31 0 0 .31 558 496)"/><path d="M0 0h100v100H0z" style="fill:#000" transform="matrix(.31 0 0 .31 589 496)"/><path d="M0 0h100v100H0z" style="fill:#000" transform="matrix(.31 0 0 .31 620 496)"/><path d="M0 0h100v100H0z" style="fill:#000" transform="matrix(.31 0 0 .31 744 496)"/><path d="M0 0h100v100H0z" style="fill:#000" transform="matrix(.31 0 0 .31 806 496)"/><path d="M0 0h100v100H0z" style="fill:#000" transform="matrix(.31 0 0 .31 868 496)"/><path d="M0 0h100v100H0z" style="fill:#000" transform="matrix(.31 0 0 .31 899 496)"/><path d="M0 0h100v100H0z" style="fill:#000" transform="matrix(.31 0 0 .31 961 496)"/><path d="M0 0h100v100H0z" style="fill:#000" transform="matrix(.31 0 0 .31 992 496)"/><path d="M0 0h100v100H0z" style="fill:#000" transform="matrix(.31 0 0 .31 62 527)"/><path d="M0 0h100v100H0z" style="fill:#000" transform="matrix(.31 0 0 .31 124 527)"/><path d="M0 0h100v100H0z" style="fill:#000" transform="matrix(.31 0 0 .31 155 527)"/><path d="M0 0h100v100H0z" style="fill:#000" transform="matrix(.31 0 0 .31 186 527)"/><path d="M0 0h100v100H0z" style="fill:#000" transform="matrix(.31 0 0 .31 217 527)"/><path d="M0 0h100v100H0z" style="fill:#000" transform="matrix(.31 0 0 .31 372 527)"/><path d="M0 0h100v100H0z" style="fill:#000" transform="matrix(.31 0 0 .31 403 527)"/><path d="M0 0h100v100H0z" style="fill:#000" transform="matrix(.31 0 0 .31 558 527)"/><path d="M0 0h100v100H0z" style="fill:#000" transform="matrix(.31 0 0 .31 651 527)"/><path d="M0 0h100v100H0z" style="fill:#000" transform="matrix(.31 0 0 .31 682 527)"/><path d="M0 0h100v100H0z" style="fill:#000" transform="matrix(.31 0 0 .31 713 527)"/><path d="M0 0h100v100H0z" style="fill:#000" transform="matrix(.31 0 0 .31 806 527)"/><path d="M0 0h100v100H0z" style="fill:#000" transform="matrix(.31 0 0 .31 837 527)"/><path d="M0 0h100v100H0z" style="fill:#000" transform="matrix(.31 0 0 .31 868 527)"/><path d="M0 0h100v100H0z" style="fill:#000" transform="matrix(.31 0 0 .31 930 527)"/><path d="M0 0h100v100H0z" style="fill:#000" transform="matrix(.31 0 0 .31 992 527)"/><path d="M0 0h100v100H0z" style="fill:#000" transform="matrix(.31 0 0 .31 62 558)"/><path d="M0 0h100v100H0z" style="fill:#000" transform="matrix(.31 0 0 .31 93 558)"/><path d="M0 0h100v100H0z" style="fill:#000" transform="matrix(.31 0 0 .31 217 558)"/><path d="M0 0h100v100H0z" style="fill:#000" transform="matrix(.31 0 0 .31 248 558)"/><path d="M0 0h100v100H0z" style="fill:#000" transform="matrix(.31 0 0 .31 341 558)"/><path d="M0 0h100v100H0z" style="fill:#000" transform="matrix(.31 0 0 .31 372 558)"/><path d="M0 0h100v100H0z" style="fill:#000" transform="matrix(.31 0 0 .31 496 558)"/><path d="M0 0h100v100H0z" style="fill:#000" transform="matrix(.31 0 0 .31 527 558)"/><path d="M0 0h100v100H0z" style="fill:#000" transform="matrix(.31 0 0 .31 558 558)"/><path d="M0 0h100v100H0z" style="fill:#000" transform="matrix(.31 0 0 .31 620 558)"/><path d="M0 0h100v100H0z" style="fill:#000" transform="matrix(.31 0 0 .31 651 558)"/><path d="M0 0h100v100H0z" style="fill:#000" transform="matrix(.31 0 0 .31 682 558)"/><path d="M0 0h100v100H0z" style="fill:#000" transform="matrix(.31 0 0 .31 713 558)"/><path d="M0 0h100v100H0z" style="fill:#000" transform="matrix(.31 0 0 .31 744 558)"/><path d="M0 0h100v100H0z" style="fill:#000" transform="matrix(.31 0 0 .31 806 558)"/><path d="M0 0h100v100H0z" style="fill:#000" transform="matrix(.31 0 0 .31 837 558)"/><path d="M0 0h100v100H0z" style="fill:#000" transform="matrix(.31 0 0 .31 868 558)"/><path d="M0 0h100v100H0z" style="fill:#000" transform="matrix(.31 0 0 .31 930 558)"/><path d="M0 0h100v100H0z" style="fill:#000" transform="matrix(.31 0 0 .31 961 558)"/><path d="M0 0h100v100H0z" style="fill:#000" transform="matrix(.31 0 0 .31 992 558)"/><path d="M0 0h100v100H0z" style="fill:#000" transform="matrix(.31 0 0 .31 93 589)"/><path d="M0 0h100v100H0z" style="fill:#000" transform="matrix(.31 0 0 .31 155 589)"/><path d="M0 0h100v100H0z" style="fill:#000" transform="matrix(.31 0 0 .31 186 589)"/><path d="M0 0h100v100H0z" style="fill:#000" transform="matrix(.31 0 0 .31 341 589)"/><path d="M0 0h100v100H0z" style="fill:#000" transform="matrix(.31 0 0 .31 372 589)"/><path d="M0 0h100v100H0z" style="fill:#000" transform="matrix(.31 0 0 .31 434 589)"/><path d="M0 0h100v100H0z" style="fill:#000" transform="matrix(.31 0 0 .31 465 589)"/><path d="M0 0h100v100H0z" style="fill:#000" transform="matrix(.31 0 0 .31 496 589)"/><path d="M0 0h100v100H0z" style="fill:#000" transform="matrix(.31 0 0 .31 527 589)"/><path d="M0 0h100v100H0z" style="fill:#000" transform="matrix(.31 0 0 .31 589 589)"/><path d="M0 0h100v100H0z" style="fill:#000" transform="matrix(.31 0 0 .31 620 589)"/><path d="M0 0h100v100H0z" style="fill:#000" transform="matrix(.31 0 0 .31 682 589)"/><path d="M0 0h100v100H0z" style="fill:#000" transform="matrix(.31 0 0 .31 775 589)"/><path d="M0 0h100v100H0z" style="fill:#000" transform="matrix(.31 0 0 .31 806 589)"/><path d="M0 0h100v100H0z" style="fill:#000" transform="matrix(.31 0 0 .31 837 589)"/><path d="M0 0h100v100H0z" style="fill:#000" transform="matrix(.31 0 0 .31 868 589)"/><path d="M0 0h100v100H0z" style="fill:#000" transform="matrix(.31 0 0 .31 930 589)"/><path d="M0 0h100v100H0z" style="fill:#000" transform="matrix(.31 0 0 .31 961 589)"/><path d="M0 0h100v100H0z" style="fill:#000" transform="matrix(.31 0 0 .31 1023 589)"/><path d="M0 0h100v100H0z" style="fill:#000" transform="matrix(.31 0 0 .31 1054 589)"/><path d="M0 0h100v100H0z" style="fill:#000" transform="matrix(.31 0 0 .31 62 620)"/><path d="M0 0h100v100H0z" style="fill:#000" transform="matrix(.31 0 0 .31 217 620)"/><path d="M0 0h100v100H0z" style="fill:#000" transform="matrix(.31 0 0 .31 248 620)"/><path d="M0 0h100v100H0z" style="fill:#000" transform="matrix(.31 0 0 .31 279 620)"/><path d="M0 0h100v100H0z" style="fill:#000" transform="matrix(.31 0 0 .31 310 620)"/><path d="M0 0h100v100H0z" style="fill:#000" transform="matrix(.31 0 0 .31 341 620)"/><path d="M0 0h100v100H0z" style="fill:#000" transform="matrix(.31 0 0 .31 434 620)"/><path d="M0 0h100v100H0z" style="fill:#000" transform="matrix(.31 0 0 .31 465 620)"/><path d="M0 0h100v100H0z" style="fill:#000" transform="matrix(.31 0 0 .31 527 620)"/><path d="M0 0h100v100H0z" style="fill:#000" transform="matrix(.31 0 0 .31 558 620)"/><path d="M0 0h100v100H0z" style="fill:#000" transform="matrix(.31 0 0 .31 589 620)"/><path d="M0 0h100v100H0z" style="fill:#000" transform="matrix(.31 0 0 .31 744 620)"/><path d="M0 0h100v100H0z" style="fill:#000" transform="matrix(.31 0 0 .31 806 620)"/><path d="M0 0h100v100H0z" style="fill:#000" transform="matrix(.31 0 0 .31 837 620)"/><path d="M0 0h100v100H0z" style="fill:#000" transform="matrix(.31 0 0 .31 899 620)"/><path d="M0 0h100v100H0z" style="fill:#000" transform="matrix(.31 0 0 .31 930 620)"/><path d="M0 0h100v100H0z" style="fill:#000" transform="matrix(.31 0 0 .31 992 620)"/><path d="M0 0h100v100H0z" style="fill:#000" transform="matrix(.31 0 0 .31 1023 620)"/><path d="M0 0h100v100H0z" style="fill:#000" transform="matrix(.31 0 0 .31 93 651)"/><path d="M0 0h100v100H0z" style="fill:#000" transform="matrix(.31 0 0 .31 124 651)"/><path d="M0 0h100v100H0z" style="fill:#000" transform="matrix(.31 0 0 .31 155 651)"/><path d="M0 0h100v100H0z" style="fill:#000" transform="matrix(.31 0 0 .31 186 651)"/><path d="M0 0h100v100H0z" style="fill:#000" transform="matrix(.31 0 0 .31 217 651)"/><path d="M0 0h100v100H0z" style="fill:#000" transform="matrix(.31 0 0 .31 341 651)"/><path d="M0 0h100v100H0z" style="fill:#000" transform="matrix(.31 0 0 .31 372 651)"/><path d="M0 0h100v100H0z" style="fill:#000" transform="matrix(.31 0 0 .31 403 651)"/><path d="M0 0h100v100H0z" style="fill:#000" transform="matrix(.31 0 0 .31 496 651)"/><path d="M0 0h100v100H0z" style="fill:#000" transform="matrix(.31 0 0 .31 651 651)"/><path d="M0 0h100v100H0z" style="fill:#000" transform="matrix(.31 0 0 .31 744 651)"/><path d="M0 0h100v100H0z" style="fill:#000" transform="matrix(.31 0 0 .31 775 651)"/><path d="M0 0h100v100H0z" style="fill:#000" transform="matrix(.31 0 0 .31 868 651)"/><path d="M0 0h100v100H0z" style="fill:#000" transform="matrix(.31 0 0 .31 930 651)"/><path d="M0 0h100v100H0z" style="fill:#000" transform="matrix(.31 0 0 .31 62 682)"/><path d="M0 0h100v100H0z" style="fill:#000" transform="matrix(.31 0 0 .31 93 682)"/><path d="M0 0h100v100H0z" style="fill:#000" transform="matrix(.31 0 0 .31 124 682)"/><path d="M0 0h100v100H0z" style="fill:#000" transform="matrix(.31 0 0 .31 155 682)"/><path d="M0 0h100v100H0z" style="fill:#000" transform="matrix(.31 0 0 .31 186 682)"/><path d="M0 0h100v100H0z" style="fill:#000" transform="matrix(.31 0 0 .31 248 682)"/><path d="M0 0h100v100H0z" style="fill:#000" transform="matrix(.31 0 0 .31 279 682)"/><path d="M0 0h100v100H0z" style="fill:#000" transform="matrix(.31 0 0 .31 372 682)"/><path d="M0 0h100v100H0z" style="fill:#000" transform="matrix(.31 0 0 .31 403 682)"/><path d="M0 0h100v100H0z" style="fill:#000" transform="matrix(.31 0 0 .31 434 682)"/><path d="M0 0h100v100H0z" style="fill:#000" transform="matrix(.31 0 0 .31 465 682)"/><path d="M0 0h100v100H0z" style="fill:#000" transform="matrix(.31 0 0 .31 620 682)"/><path d="M0 0h100v100H0z" style="fill:#000" transform="matrix(.31 0 0 .31 713 682)"/><path d="M0 0h100v100H0z" style="fill:#000" transform="matrix(.31 0 0 .31 744 682)"/><path d="M0 0h100v100H0z" style="fill:#000" transform="matrix(.31 0 0 .31 806 682)"/><path d="M0 0h100v100H0z" style="fill:#000" transform="matrix(.31 0 0 .31 837 682)"/><path d="M0 0h100v100H0z" style="fill:#000" transform="matrix(.31 0 0 .31 961 682)"/><path d="M0 0h100v100H0z" style="fill:#000" transform="matrix(.31 0 0 .31 992 682)"/><path d="M0 0h100v100H0z" style="fill:#000" transform="matrix(.31 0 0 .31 62 713)"/><path d="M0 0h100v100H0z" style="fill:#000" transform="matrix(.31 0 0 .31 217 713)"/><path d="M0 0h100v100H0z" style="fill:#000" transform="matrix(.31 0 0 .31 279 713)"/><path d="M0 0h100v100H0z" style="fill:#000" transform="matrix(.31 0 0 .31 310 713)"/><path d="M0 0h100v100H0z" style="fill:#000" transform="matrix(.31 0 0 .31 372 713)"/><path d="M0 0h100v100H0z" style="fill:#000" transform="matrix(.31 0 0 .31 496 713)"/><path d="M0 0h100v100H0z" style="fill:#000" transform="matrix(.31 0 0 .31 527 713)"/><path d="M0 0h100v100H0z" style="fill:#000" transform="matrix(.31 0 0 .31 620 713)"/><path d="M0 0h100v100H0z" style="fill:#000" transform="matrix(.31 0 0 .31 713 713)"/><path d="M0 0h100v100H0z" style="fill:#000" transform="matrix(.31 0 0 .31 744 713)"/><path d="M0 0h100v100H0z" style="fill:#000" transform="matrix(.31 0 0 .31 775 713)"/><path d="M0 0h100v100H0z" style="fill:#000" transform="matrix(.31 0 0 .31 806 713)"/><path d="M0 0h100v100H0z" style="fill:#000" transform="matrix(.31 0 0 .31 837 713)"/><path d="M0 0h100v100H0z" style="fill:#000" transform="matrix(.31 0 0 .31 868 713)"/><path d="M0 0h100v100H0z" style="fill:#000" transform="matrix(.31 0 0 .31 899 713)"/><path d="M0 0h100v100H0z" style="fill:#000" transform="matrix(.31 0 0 .31 961 713)"/><path d="M0 0h100v100H0z" style="fill:#000" transform="matrix(.31 0 0 .31 1054 713)"/><path d="M0 0h100v100H0z" style="fill:#000" transform="matrix(.31 0 0 .31 186 744)"/><path d="M0 0h100v100H0z" style="fill:#000" transform="matrix(.31 0 0 .31 217 744)"/><path d="M0 0h100v100H0z" style="fill:#000" transform="matrix(.31 0 0 .31 248 744)"/><path d="M0 0h100v100H0z" style="fill:#000" transform="matrix(.31 0 0 .31 279 744)"/><path d="M0 0h100v100H0z" style="fill:#000" transform="matrix(.31 0 0 .31 310 744)"/><path d="M0 0h100v100H0z" style="fill:#000" transform="matrix(.31 0 0 .31 372 744)"/><path d="M0 0h100v100H0z" style="fill:#000" transform="matrix(.31 0 0 .31 403 744)"/><path d="M0 0h100v100H0z" style="fill:#000" transform="matrix(.31 0 0 .31 434 744)"/><path d="M0 0h100v100H0z" style="fill:#000" transform="matrix(.31 0 0 .31 465 744)"/><path d="M0 0h100v100H0z" style="fill:#000" transform="matrix(.31 0 0 .31 558 744)"/><path d="M0 0h100v100H0z" style="fill:#000" transform="matrix(.31 0 0 .31 589 744)"/><path d="M0 0h100v100H0z" style="fill:#000" transform="matrix(.31 0 0 .31 620 744)"/><path d="M0 0h100v100H0z" style="fill:#000" transform="matrix(.31 0 0 .31 682 744)"/><path d="M0 0h100v100H0z" style="fill:#000" transform="matrix(.31 0 0 .31 775 744)"/><path d="M0 0h100v100H0z" style="fill:#000" transform="matrix(.31 0 0 .31 806 744)"/><path d="M0 0h100v100H0z" style="fill:#000" transform="matrix(.31 0 0 .31 868 744)"/><path d="M0 0h100v100H0z" style="fill:#000" transform="matrix(.31 0 0 .31 930 744)"/><path d="M0 0h100v100H0z" style="fill:#000" transform="matrix(.31 0 0 .31 1023 744)"/><path d="M0 0h100v100H0z" style="fill:#000" transform="matrix(.31 0 0 .31 1054 744)"/><path d="M0 0h100v100H0z" style="fill:#000" transform="matrix(.31 0 0 .31 93 775)"/><path d="M0 0h100v100H0z" style="fill:#000" transform="matrix(.31 0 0 .31 124 775)"/><path d="M0 0h100v100H0z" style="fill:#000" transform="matrix(.31 0 0 .31 155 775)"/><path d="M0 0h100v100H0z" style="fill:#000" transform="matrix(.31 0 0 .31 279 775)"/><path d="M0 0h100v100H0z" style="fill:#000" transform="matrix(.31 0 0 .31 434 775)"/><path d="M0 0h100v100H0z" style="fill:#000" transform="matrix(.31 0 0 .31 558 775)"/><path d="M0 0h100v100H0z" style="fill:#000" transform="matrix(.31 0 0 .31 620 775)"/><path d="M0 0h100v100H0z" style="fill:#000" transform="matrix(.31 0 0 .31 651 775)"/><path d="M0 0h100v100H0z" style="fill:#000" transform="matrix(.31 0 0 .31 744 775)"/><path d="M0 0h100v100H0z" style="fill:#000" transform="matrix(.31 0 0 .31 806 775)"/><path d="M0 0h100v100H0z" style="fill:#000" transform="matrix(.31 0 0 .31 961 775)"/><path d="M0 0h100v100H0z" style="fill:#000" transform="matrix(.31 0 0 .31 1023 775)"/><path d="M0 0h100v100H0z" style="fill:#000" transform="matrix(.31 0 0 .31 1054 775)"/><path d="M0 0h100v100H0z" style="fill:#000" transform="matrix(.31 0 0 .31 62 806)"/><path d="M0 0h100v100H0z" style="fill:#000" transform="matrix(.31 0 0 .31 155 806)"/><path d="M0 0h100v100H0z" style="fill:#000" transform="matrix(.31 0 0 .31 217 806)"/><path d="M0 0h100v100H0z" style="fill:#000" transform="matrix(.31 0 0 .31 248 806)"/><path d="M0 0h100v100H0z" style="fill:#000" transform="matrix(.31 0 0 .31 372 806)"/><path d="M0 0h100v100H0z" style="fill:#000" transform="matrix(.31 0 0 .31 434 806)"/><path d="M0 0h100v100H0z" style="fill:#000" transform="matrix(.31 0 0 .31 465 806)"/><path d="M0 0h100v100H0z" style="fill:#000" transform="matrix(.31 0 0 .31 527 806)"/><path d="M0 0h100v100H0z" style="fill:#000" transform="matrix(.31 0 0 .31 589 806)"/><path d="M0 0h100v100H0z" style="fill:#000" transform="matrix(.31 0 0 .31 651 806)"/><path d="M0 0h100v100H0z" style="fill:#000" transform="matrix(.31 0 0 .31 744 806)"/><path d="M0 0h100v100H0z" style="fill:#000" transform="matrix(.31 0 0 .31 806 806)"/><path d="M0 0h100v100H0z" style="fill:#000" transform="matrix(.31 0 0 .31 837 806)"/><path d="M0 0h100v100H0z" style="fill:#000" transform="matrix(.31 0 0 .31 868 806)"/><path d="M0 0h100v100H0z" style="fill:#000" transform="matrix(.31 0 0 .31 899 806)"/><path d="M0 0h100v100H0z" style="fill:#000" transform="matrix(.31 0 0 .31 930 806)"/><path d="M0 0h100v100H0z" style="fill:#000" transform="matrix(.31 0 0 .31 961 806)"/><path d="M0 0h100v100H0z" style="fill:#000" transform="matrix(.31 0 0 .31 310 837)"/><path d="M0 0h100v100H0z" style="fill:#000" transform="matrix(.31 0 0 .31 403 837)"/><path d="M0 0h100v100H0z" style="fill:#000" transform="matrix(.31 0 0 .31 527 837)"/><path d="M0 0h100v100H0z" style="fill:#000" transform="matrix(.31 0 0 .31 558 837)"/><path d="M0 0h100v100H0z" style="fill:#000" transform="matrix(.31 0 0 .31 589 837)"/><path d="M0 0h100v100H0z" style="fill:#000" transform="matrix(.31 0 0 .31 620 837)"/><path d="M0 0h100v100H0z" style="fill:#000" transform="matrix(.31 0 0 .31 651 837)"/><path d="M0 0h100v100H0z" style="fill:#000" transform="matrix(.31 0 0 .31 682 837)"/><path d="M0 0h100v100H0z" style="fill:#000" transform="matrix(.31 0 0 .31 806 837)"/><path d="M0 0h100v100H0z" style="fill:#000" transform="matrix(.31 0 0 .31 930 837)"/><path d="M0 0h100v100H0z" style="fill:#000" transform="matrix(.31 0 0 .31 961 837)"/><path d="M0 0h100v100H0z" style="fill:#000" transform="matrix(.31 0 0 .31 1023 837)"/><path d="M0 0h100v100H0z" style="fill:#000" transform="matrix(.31 0 0 .31 310 868)"/><path d="M0 0h100v100H0z" style="fill:#000" transform="matrix(.31 0 0 .31 372 868)"/><path d="M0 0h100v100H0z" style="fill:#000" transform="matrix(.31 0 0 .31 434 868)"/><path d="M0 0h100v100H0z" style="fill:#000" transform="matrix(.31 0 0 .31 465 868)"/><path d="M0 0h100v100H0z" style="fill:#000" transform="matrix(.31 0 0 .31 496 868)"/><path d="M0 0h100v100H0z" style="fill:#000" transform="matrix(.31 0 0 .31 651 868)"/><path d="M0 0h100v100H0z" style="fill:#000" transform="matrix(.31 0 0 .31 682 868)"/><path d="M0 0h100v100H0z" style="fill:#000" transform="matrix(.31 0 0 .31 713 868)"/><path d="M0 0h100v100H0z" style="fill:#000" transform="matrix(.31 0 0 .31 744 868)"/><path d="M0 0h100v100H0z" style="fill:#000" transform="matrix(.31 0 0 .31 775 868)"/><path d="M0 0h100v100H0z" style="fill:#000" transform="matrix(.31 0 0 .31 806 868)"/><path d="M0 0h100v100H0z" style="fill:#000" transform="matrix(.31 0 0 .31 868 868)"/><path d="M0 0h100v100H0z" style="fill:#000" transform="matrix(.31 0 0 .31 930 868)"/><path d="M0 0h100v100H0z" style="fill:#000" transform="matrix(.31 0 0 .31 310 899)"/><path d="M0 0h100v100H0z" style="fill:#000" transform="matrix(.31 0 0 .31 558 899)"/><path d="M0 0h100v100H0z" style="fill:#000" transform="matrix(.31 0 0 .31 682 899)"/><path d="M0 0h100v100H0z" style="fill:#000" transform="matrix(.31 0 0 .31 713 899)"/><path d="M0 0h100v100H0z" style="fill:#000" transform="matrix(.31 0 0 .31 775 899)"/><path d="M0 0h100v100H0z" style="fill:#000" transform="matrix(.31 0 0 .31 806 899)"/><path d="M0 0h100v100H0z" style="fill:#000" transform="matrix(.31 0 0 .31 930 899)"/><path d="M0 0h100v100H0z" style="fill:#000" transform="matrix(.31 0 0 .31 961 899)"/><path d="M0 0h100v100H0z" style="fill:#000" transform="matrix(.31 0 0 .31 992 899)"/><path d="M0 0h100v100H0z" style="fill:#000" transform="matrix(.31 0 0 .31 1023 899)"/><path d="M0 0h100v100H0z" style="fill:#000" transform="matrix(.31 0 0 .31 341 930)"/><path d="M0 0h100v100H0z" style="fill:#000" transform="matrix(.31 0 0 .31 372 930)"/><path d="M0 0h100v100H0z" style="fill:#000" transform="matrix(.31 0 0 .31 403 930)"/><path d="M0 0h100v100H0z" style="fill:#000" transform="matrix(.31 0 0 .31 434 930)"/><path d="M0 0h100v100H0z" style="fill:#000" transform="matrix(.31 0 0 .31 496 930)"/><path d="M0 0h100v100H0z" style="fill:#000" transform="matrix(.31 0 0 .31 527 930)"/><path d="M0 0h100v100H0z" style="fill:#000" transform="matrix(.31 0 0 .31 589 930)"/><path d="M0 0h100v100H0z" style="fill:#000" transform="matrix(.31 0 0 .31 713 930)"/><path d="M0 0h100v100H0z" style="fill:#000" transform="matrix(.31 0 0 .31 775 930)"/><path d="M0 0h100v100H0z" style="fill:#000" transform="matrix(.31 0 0 .31 806 930)"/><path d="M0 0h100v100H0z" style="fill:#000" transform="matrix(.31 0 0 .31 837 930)"/><path d="M0 0h100v100H0z" style="fill:#000" transform="matrix(.31 0 0 .31 868 930)"/><path d="M0 0h100v100H0z" style="fill:#000" transform="matrix(.31 0 0 .31 899 930)"/><path d="M0 0h100v100H0z" style="fill:#000" transform="matrix(.31 0 0 .31 930 930)"/><path d="M0 0h100v100H0z" style="fill:#000" transform="matrix(.31 0 0 .31 992 930)"/><path d="M0 0h100v100H0z" style="fill:#000" transform="matrix(.31 0 0 .31 1023 930)"/><path d="M0 0h100v100H0z" style="fill:#000" transform="matrix(.31 0 0 .31 1054 930)"/><path d="M0 0h100v100H0z" style="fill:#000" transform="matrix(.31 0 0 .31 310 961)"/><path d="M0 0h100v100H0z" style="fill:#000" transform="matrix(.31 0 0 .31 372 961)"/><path d="M0 0h100v100H0z" style="fill:#000" transform="matrix(.31 0 0 .31 434 961)"/><path d="M0 0h100v100H0z" style="fill:#000" transform="matrix(.31 0 0 .31 496 961)"/><path d="M0 0h100v100H0z" style="fill:#000" transform="matrix(.31 0 0 .31 620 961)"/><path d="M0 0h100v100H0z" style="fill:#000" transform="matrix(.31 0 0 .31 713 961)"/><path d="M0 0h100v100H0z" style="fill:#000" transform="matrix(.31 0 0 .31 899 961)"/><path d="M0 0h100v100H0z" style="fill:#000" transform="matrix(.31 0 0 .31 961 961)"/><path d="M0 0h100v100H0z" style="fill:#000" transform="matrix(.31 0 0 .31 1054 961)"/><path d="M0 0h100v100H0z" style="fill:#000" transform="matrix(.31 0 0 .31 310 992)"/><path d="M0 0h100v100H0z" style="fill:#000" transform="matrix(.31 0 0 .31 403 992)"/><path d="M0 0h100v100H0z" style="fill:#000" transform="matrix(.31 0 0 .31 589 992)"/><path d="M0 0h100v100H0z" style="fill:#000" transform="matrix(.31 0 0 .31 620 992)"/><path d="M0 0h100v100H0z" style="fill:#000" transform="matrix(.31 0 0 .31 713 992)"/><path d="M0 0h100v100H0z" style="fill:#000" transform="matrix(.31 0 0 .31 744 992)"/><path d="M0 0h100v100H0z" style="fill:#000" transform="matrix(.31 0 0 .31 806 992)"/><path d="M0 0h100v100H0z" style="fill:#000" transform="matrix(.31 0 0 .31 837 992)"/><path d="M0 0h100v100H0z" style="fill:#000" transform="matrix(.31 0 0 .31 868 992)"/><path d="M0 0h100v100H0z" style="fill:#000" transform="matrix(.31 0 0 .31 899 992)"/><path d="M0 0h100v100H0z" style="fill:#000" transform="matrix(.31 0 0 .31 961 992)"/><path d="M0 0h100v100H0z" style="fill:#000" transform="matrix(.31 0 0 .31 992 992)"/><path d="M0 0h100v100H0z" style="fill:#000" transform="matrix(.31 0 0 .31 341 1023)"/><path d="M0 0h100v100H0z" style="fill:#000" transform="matrix(.31 0 0 .31 403 1023)"/><path d="M0 0h100v100H0z" style="fill:#000" transform="matrix(.31 0 0 .31 465 1023)"/><path d="M0 0h100v100H0z" style="fill:#000" transform="matrix(.31 0 0 .31 496 1023)"/><path d="M0 0h100v100H0z" style="fill:#000" transform="matrix(.31 0 0 .31 527 1023)"/><path d="M0 0h100v100H0z" style="fill:#000" transform="matrix(.31 0 0 .31 558 1023)"/><path d="M0 0h100v100H0z" style="fill:#000" transform="matrix(.31 0 0 .31 589 1023)"/><path d="M0 0h100v100H0z" style="fill:#000" transform="matrix(.31 0 0 .31 620 1023)"/><path d="M0 0h100v100H0z" style="fill:#000" transform="matrix(.31 0 0 .31 651 1023)"/><path d="M0 0h100v100H0z" style="fill:#000" transform="matrix(.31 0 0 .31 682 1023)"/><path d="M0 0h100v100H0z" style="fill:#000" transform="matrix(.31 0 0 .31 806 1023)"/><path d="M0 0h100v100H0z" style="fill:#000" transform="matrix(.31 0 0 .31 868 1023)"/><path d="M0 0h100v100H0z" style="fill:#000" transform="matrix(.31 0 0 .31 899 1023)"/><path d="M0 0h100v100H0z" style="fill:#000" transform="matrix(.31 0 0 .31 930 1023)"/><path d="M0 0h100v100H0z" style="fill:#000" transform="matrix(.31 0 0 .31 1054 1023)"/><path d="M0 0h100v100H0z" style="fill:#000" transform="matrix(.31 0 0 .31 310 1054)"/><path d="M0 0h100v100H0z" style="fill:#000" transform="matrix(.31 0 0 .31 341 1054)"/><path d="M0 0h100v100H0z" style="fill:#000" transform="matrix(.31 0 0 .31 372 1054)"/><path d="M0 0h100v100H0z" style="fill:#000" transform="matrix(.31 0 0 .31 403 1054)"/><path d="M0 0h100v100H0z" style="fill:#000" transform="matrix(.31 0 0 .31 434 1054)"/><path d="M0 0h100v100H0z" style="fill:#000" transform="matrix(.31 0 0 .31 465 1054)"/><path d="M0 0h100v100H0z" style="fill:#000" transform="matrix(.31 0 0 .31 496 1054)"/><path d="M0 0h100v100H0z" style="fill:#000" transform="matrix(.31 0 0 .31 527 1054)"/><path d="M0 0h100v100H0z" style="fill:#000" transform="matrix(.31 0 0 .31 558 1054)"/><path d="M0 0h100v100H0z" style="fill:#000" transform="matrix(.31 0 0 .31 589 1054)"/><path d="M0 0h100v100H0z" style="fill:#000" transform="matrix(.31 0 0 .31 651 1054)"/><path d="M0 0h100v100H0z" style="fill:#000" transform="matrix(.31 0 0 .31 713 1054)"/><path d="M0 0h100v100H0z" style="fill:#000" transform="matrix(.31 0 0 .31 930 1054)"/><path d="M0 0h100v100H0z" style="fill:#000" transform="matrix(.31 0 0 .31 961 1054)"/><path d="M0 0h100v100H0z" style="fill:#000" transform="matrix(.31 0 0 .31 992 1054)"/><g style="fill:#000"><path d="M15 15h70v70H15z" style="fill:none" transform="matrix(2.17 0 0 2.17 62 62)"/><path d="M246.45 62H62v217h217V62h-32.55zm0 184.45H94.55V94.55h151.9v151.9z"/></g><g style="fill:#000"><path d="M15 15h70v70H15z" style="fill:none" transform="matrix(2.17 0 0 2.17 868 62)"/><path d="M1052.45 62H868v217h217V62h-32.55zm0 184.45h-151.9V94.55h151.9v151.9z"/></g><g style="fill:#000"><path d="M15 15h70v70H15z" style="fill:none" transform="matrix(2.17 0 0 2.17 62 868)"/><path d="M246.45 868H62v217h217V868h-32.55zm0 184.45H94.55v-151.9h151.9v151.9z"/></g><path d="M0 0h100v100H0z" style="fill:#000" transform="matrix(.93 0 0 .93 124 124)"/><path d="M0 0h100v100H0z" style="fill:#000" transform="matrix(.93 0 0 .93 930 124)"/><path d="M0 0h100v100H0z" style="fill:#000" transform="matrix(.93 0 0 .93 124 930)"/></svg>