<svg width="34" height="35" viewBox="0 0 34 35" fill="none" xmlns="http://www.w3.org/2000/svg">
<path d="M17.0007 24.5835L18.4173 21.7502V14.4657C20.8554 13.8324 22.6673 11.6323 22.6673 9.00016C22.6673 5.875 20.1258 3.3335 17.0007 3.3335C13.8755 3.3335 11.334 5.875 11.334 9.00016C11.334 11.6323 13.1459 13.8324 15.584 14.4657V21.7502L17.0007 24.5835ZM14.1673 9.00016C14.1673 7.43758 15.4381 6.16683 17.0007 6.16683C18.5632 6.16683 19.834 7.43758 19.834 9.00016C19.834 10.5627 18.5632 11.8335 17.0007 11.8335C15.4381 11.8335 14.1673 10.5627 14.1673 9.00016Z" fill="#309B42"/>
<path d="M23.0456 15.4643L22.2905 18.1956C25.9611 19.21 28.334 21.1607 28.334 23.1667C28.334 25.8471 23.6802 28.8334 17.0007 28.8334C10.3211 28.8334 5.66732 25.8471 5.66732 23.1667C5.66732 21.1607 8.04024 19.21 11.7122 18.1942L10.9572 15.4629C5.9464 16.8484 2.83398 19.7993 2.83398 23.1667C2.83398 27.9324 9.0574 31.6667 17.0007 31.6667C24.9439 31.6667 31.1673 27.9324 31.1673 23.1667C31.1673 19.7993 28.0549 16.8484 23.0456 15.4643Z" fill="#309B42"/>
</svg>