<svg width="36" height="36" viewBox="0 0 36 36" fill="none" xmlns="http://www.w3.org/2000/svg">
<path d="M31.158 15.234L29.106 9.0765C28.4925 7.236 26.778 6 24.8385 6H11.1615C9.222 6 7.5075 7.236 6.894 9.0765L4.842 15.234C3.762 15.6885 3 16.7565 3 18V25.5C3 26.6295 3.6345 27.603 4.5585 28.1145C4.539 28.2135 4.5 28.3035 4.5 28.407V31.5C4.5 32.3295 5.1705 33 6 33H7.5C8.3295 33 9 32.3295 9 31.5V28.5H27V31.5C27 32.3295 27.6705 33 28.5 33H30C30.8295 33 31.5 32.3295 31.5 31.5V28.407C31.5 28.3035 31.461 28.212 31.4415 28.1145C32.3655 27.603 33 26.6295 33 25.5V18C33 16.7565 32.238 15.6885 31.158 15.234ZM6 25.5V18H30L30.003 25.5H6ZM11.1615 9H24.837C25.4835 9 26.0565 9.411 26.2605 10.026L27.9195 15H8.0805L9.738 10.026C9.9435 9.411 10.5165 9 11.1615 9Z" fill="white"/>
<path d="M9.75 24C10.9926 24 12 22.9926 12 21.75C12 20.5074 10.9926 19.5 9.75 19.5C8.50736 19.5 7.5 20.5074 7.5 21.75C7.5 22.9926 8.50736 24 9.75 24Z" fill="white"/>
<path d="M26.25 24C27.4926 24 28.5 22.9926 28.5 21.75C28.5 20.5074 27.4926 19.5 26.25 19.5C25.0074 19.5 24 20.5074 24 21.75C24 22.9926 25.0074 24 26.25 24Z" fill="white"/>
</svg>