<svg width="28" height="28" fill="none" xmlns="http://www.w3.org/2000/svg"><path d="M22.531 16.413c.604 0 1.094.49 1.094 1.094v1.312c0 .604-.49 1.094-1.094 1.094h-2.515c-.604 0-1.094-.49-1.094-1.094v-1.312c0-.605.49-1.094 1.094-1.094h2.515Zm3.282-1.969v-3.281H2.188v8.743a2.19 2.19 0 0 0 2.187 2.188h19.25a2.19 2.19 0 0 0 2.188-2.188 1.094 1.094 0 1 1 2.187 0 4.38 4.38 0 0 1-4.375 4.375H4.375A4.38 4.38 0 0 1 0 19.906V8.094a4.38 4.38 0 0 1 4.375-4.375h19.25A4.38 4.38 0 0 1 28 8.094v6.35a1.094 1.094 0 1 1-2.188 0Zm0-5.469v-.881a2.19 2.19 0 0 0-2.188-2.188H4.375a2.19 2.19 0 0 0-2.188 2.188v.881h23.625ZM5.468 13.35a1.094 1.094 0 1 0 0 2.188h9.023a1.094 1.094 0 0 0 0-2.188H5.47Z" fill="url(#a)"/><defs><linearGradient id="a" x1="0" y1="14.049" x2="28" y2="14.049" gradientUnits="userSpaceOnUse"><stop stop-color="#007749"/><stop offset=".5" stop-color="#29CD8E"/><stop offset="1" stop-color="#288F67"/></linearGradient></defs></svg>