<svg xmlns="http://www.w3.org/2000/svg" viewBox="0 0 130 57"><g fill="none"><path fill="#007855" d="M0 57h130V0H0v57z"/><path fill="#FFF" d="M15.31 42.2V14.56h18.66v4.82H21.16V26h11.83v4.82H21.16v6.57h12.81v4.81H15.31zM43.02 14.72l6.68 21.02h.27l6.68-21.02h6.52l-9.53 27.65h-7.55l-9.53-27.65h6.46zM89.55 28.57c0 3.01-.55 5.58-1.7 7.72-1.15 2.13-2.68 3.72-4.65 4.82-1.97 1.09-4.16 1.64-6.62 1.64s-4.65-.55-6.62-1.7c-1.97-1.09-3.5-2.74-4.65-4.82-1.15-2.13-1.7-4.65-1.7-7.66s.55-5.58 1.7-7.72c1.15-2.13 2.68-3.72 4.65-4.82 1.97-1.09 4.16-1.64 6.62-1.64s4.65.55 6.62 1.64c1.97 1.09 3.5 2.74 4.65 4.82 1.1 2.14 1.7 4.66 1.7 7.72zm-5.91 0c0-1.97-.27-3.61-.88-4.93-.6-1.31-1.37-2.35-2.46-3.07-1.04-.71-2.3-1.04-3.72-1.04-1.42 0-2.63.33-3.72 1.04-1.04.71-1.86 1.7-2.46 3.07-.6 1.37-.88 3.01-.88 4.93 0 1.97.27 3.61.88 4.93.6 1.37 1.42 2.35 2.46 3.07 1.04.71 2.3 1.04 3.72 1.04 1.42 0 2.63-.33 3.72-1.04 1.04-.71 1.86-1.7 2.46-3.07.55-1.37.88-3.01.88-4.93zM108 22.66c-.11-1.09-.55-1.92-1.37-2.52-.82-.6-1.92-.93-3.34-.93-.93 0-1.75.11-2.41.38-.66.27-1.15.66-1.48 1.09-.33.49-.49.99-.49 1.59 0 .49.11.93.33 1.31.22.38.55.71.93.93.38.27.88.49 1.42.66.55.22 1.09.38 1.7.49l2.46.6c1.2.27 2.3.6 3.34 1.09.99.44 1.86.99 2.63 1.64.71.66 1.31 1.42 1.7 2.3.44.88.6 1.92.6 3.07 0 1.7-.44 3.17-1.26 4.38-.88 1.26-2.08 2.19-3.67 2.9-1.59.66-3.5 1.04-5.75 1.04-2.24 0-4.16-.33-5.8-1.04-1.64-.71-2.96-1.7-3.83-3.07-.93-1.37-1.42-3.01-1.48-4.98h5.64c.05.93.33 1.7.82 2.3.49.6 1.09 1.09 1.92 1.37.77.33 1.7.44 2.68.44.99 0 1.86-.16 2.57-.44.71-.27 1.31-.66 1.7-1.2.38-.49.6-1.09.6-1.75 0-.6-.16-1.15-.55-1.59-.38-.44-.88-.77-1.59-1.09-.71-.27-1.53-.55-2.57-.82l-3.01-.77c-2.35-.55-4.16-1.48-5.53-2.68-1.37-1.2-2.03-2.85-2.03-4.87 0-1.7.44-3.12 1.37-4.38.88-1.26 2.13-2.24 3.72-2.9 1.59-.71 3.39-1.04 5.42-1.04 2.08 0 3.83.33 5.36 1.04 1.53.71 2.74 1.7 3.61 2.9.88 1.26 1.31 2.68 1.31 4.32z"/></g></svg>