<svg width="24" height="24" viewBox="0 0 24 24" fill="#077855" xmlns="http://www.w3.org/2000/svg"><g clip-path="url(#clip0_526_3433)"><path d="M24.0001 12C24.0001 5.37258 18.6275 0 12.0001 0C5.3727 0 0.00012207 5.37258 0.00012207 12C0.00012207 17.9895 4.38833 22.954 10.1251 23.8542V15.4688H7.07825V12H10.1251V9.35625C10.1251 6.34875 11.9167 4.6875 14.6577 4.6875C15.9702 4.6875 17.3439 4.92188 17.3439 4.92188V7.875H15.8307C14.3401 7.875 13.8751 8.80008 13.8751 9.75V12H17.2032L16.6712 15.4688H13.8751V23.8542C19.6119 22.954 24.0001 17.9895 24.0001 12Z" fill="inherit"></path><path d="M16.6712 15.4688L17.2032 12H13.8751V9.75C13.8751 8.80102 14.3401 7.875 15.8307 7.875H17.3439V4.92188C17.3439 4.92188 15.9707 4.6875 14.6577 4.6875C11.9167 4.6875 10.1251 6.34875 10.1251 9.35625V12H7.07825V15.4688H10.1251V23.8542C11.3676 24.0486 12.6327 24.0486 13.8751 23.8542V15.4688H16.6712Z" fill="white"></path></g><defs><clipPath id="clip0_526_3433"><rect width="24" height="24" fill="white" transform="translate(0.00012207)"></rect></clipPath></defs></svg>