<svg xmlns="http://www.w3.org/2000/svg" xml:space="preserve" width="1148" height="1148"><path fill="#FFF" d="M0 0h1148v1148H0z"/><path d="M0 0h100v100H0z" style="fill:#000" transform="matrix(.28 0 0 .28 392 56)"/><path d="M0 0h100v100H0z" style="fill:#000" transform="matrix(.28 0 0 .28 476 56)"/><path d="M0 0h100v100H0z" style="fill:#000" transform="matrix(.28 0 0 .28 560 56)"/><path d="M0 0h100v100H0z" style="fill:#000" transform="matrix(.28 0 0 .28 588 56)"/><path d="M0 0h100v100H0z" style="fill:#000" transform="matrix(.28 0 0 .28 616 56)"/><path d="M0 0h100v100H0z" style="fill:#000" transform="matrix(.28 0 0 .28 644 56)"/><path d="M0 0h100v100H0z" style="fill:#000" transform="matrix(.28 0 0 .28 700 56)"/><path d="M0 0h100v100H0z" style="fill:#000" transform="matrix(.28 0 0 .28 756 56)"/><path d="M0 0h100v100H0z" style="fill:#000" transform="matrix(.28 0 0 .28 840 56)"/><path d="M0 0h100v100H0z" style="fill:#000" transform="matrix(.28 0 0 .28 336 84)"/><path d="M0 0h100v100H0z" style="fill:#000" transform="matrix(.28 0 0 .28 364 84)"/><path d="M0 0h100v100H0z" style="fill:#000" transform="matrix(.28 0 0 .28 420 84)"/><path d="M0 0h100v100H0z" style="fill:#000" transform="matrix(.28 0 0 .28 448 84)"/><path d="M0 0h100v100H0z" style="fill:#000" transform="matrix(.28 0 0 .28 532 84)"/><path d="M0 0h100v100H0z" style="fill:#000" transform="matrix(.28 0 0 .28 560 84)"/><path d="M0 0h100v100H0z" style="fill:#000" transform="matrix(.28 0 0 .28 728 84)"/><path d="M0 0h100v100H0z" style="fill:#000" transform="matrix(.28 0 0 .28 756 84)"/><path d="M0 0h100v100H0z" style="fill:#000" transform="matrix(.28 0 0 .28 784 84)"/><path d="M0 0h100v100H0z" style="fill:#000" transform="matrix(.28 0 0 .28 812 84)"/><path d="M0 0h100v100H0z" style="fill:#000" transform="matrix(.28 0 0 .28 840 84)"/><path d="M0 0h100v100H0z" style="fill:#000" transform="matrix(.28 0 0 .28 280 112)"/><path d="M0 0h100v100H0z" style="fill:#000" transform="matrix(.28 0 0 .28 336 112)"/><path d="M0 0h100v100H0z" style="fill:#000" transform="matrix(.28 0 0 .28 364 112)"/><path d="M0 0h100v100H0z" style="fill:#000" transform="matrix(.28 0 0 .28 392 112)"/><path d="M0 0h100v100H0z" style="fill:#000" transform="matrix(.28 0 0 .28 448 112)"/><path d="M0 0h100v100H0z" style="fill:#000" transform="matrix(.28 0 0 .28 504 112)"/><path d="M0 0h100v100H0z" style="fill:#000" transform="matrix(.28 0 0 .28 588 112)"/><path d="M0 0h100v100H0z" style="fill:#000" transform="matrix(.28 0 0 .28 616 112)"/><path d="M0 0h100v100H0z" style="fill:#000" transform="matrix(.28 0 0 .28 644 112)"/><path d="M0 0h100v100H0z" style="fill:#000" transform="matrix(.28 0 0 .28 672 112)"/><path d="M0 0h100v100H0z" style="fill:#000" transform="matrix(.28 0 0 .28 700 112)"/><path d="M0 0h100v100H0z" style="fill:#000" transform="matrix(.28 0 0 .28 784 112)"/><path d="M0 0h100v100H0z" style="fill:#000" transform="matrix(.28 0 0 .28 280 140)"/><path d="M0 0h100v100H0z" style="fill:#000" transform="matrix(.28 0 0 .28 336 140)"/><path d="M0 0h100v100H0z" style="fill:#000" transform="matrix(.28 0 0 .28 364 140)"/><path d="M0 0h100v100H0z" style="fill:#000" transform="matrix(.28 0 0 .28 392 140)"/><path d="M0 0h100v100H0z" style="fill:#000" transform="matrix(.28 0 0 .28 420 140)"/><path d="M0 0h100v100H0z" style="fill:#000" transform="matrix(.28 0 0 .28 448 140)"/><path d="M0 0h100v100H0z" style="fill:#000" transform="matrix(.28 0 0 .28 476 140)"/><path d="M0 0h100v100H0z" style="fill:#000" transform="matrix(.28 0 0 .28 532 140)"/><path d="M0 0h100v100H0z" style="fill:#000" transform="matrix(.28 0 0 .28 560 140)"/><path d="M0 0h100v100H0z" style="fill:#000" transform="matrix(.28 0 0 .28 616 140)"/><path d="M0 0h100v100H0z" style="fill:#000" transform="matrix(.28 0 0 .28 672 140)"/><path d="M0 0h100v100H0z" style="fill:#000" transform="matrix(.28 0 0 .28 756 140)"/><path d="M0 0h100v100H0z" style="fill:#000" transform="matrix(.28 0 0 .28 784 140)"/><path d="M0 0h100v100H0z" style="fill:#000" transform="matrix(.28 0 0 .28 812 140)"/><path d="M0 0h100v100H0z" style="fill:#000" transform="matrix(.28 0 0 .28 280 168)"/><path d="M0 0h100v100H0z" style="fill:#000" transform="matrix(.28 0 0 .28 308 168)"/><path d="M0 0h100v100H0z" style="fill:#000" transform="matrix(.28 0 0 .28 392 168)"/><path d="M0 0h100v100H0z" style="fill:#000" transform="matrix(.28 0 0 .28 504 168)"/><path d="M0 0h100v100H0z" style="fill:#000" transform="matrix(.28 0 0 .28 560 168)"/><path d="M0 0h100v100H0z" style="fill:#000" transform="matrix(.28 0 0 .28 588 168)"/><path d="M0 0h100v100H0z" style="fill:#000" transform="matrix(.28 0 0 .28 616 168)"/><path d="M0 0h100v100H0z" style="fill:#000" transform="matrix(.28 0 0 .28 672 168)"/><path d="M0 0h100v100H0z" style="fill:#000" transform="matrix(.28 0 0 .28 700 168)"/><path d="M0 0h100v100H0z" style="fill:#000" transform="matrix(.28 0 0 .28 840 168)"/><path d="M0 0h100v100H0z" style="fill:#000" transform="matrix(.28 0 0 .28 280 196)"/><path d="M0 0h100v100H0z" style="fill:#000" transform="matrix(.28 0 0 .28 336 196)"/><path d="M0 0h100v100H0z" style="fill:#000" transform="matrix(.28 0 0 .28 392 196)"/><path d="M0 0h100v100H0z" style="fill:#000" transform="matrix(.28 0 0 .28 420 196)"/><path d="M0 0h100v100H0z" style="fill:#000" transform="matrix(.28 0 0 .28 448 196)"/><path d="M0 0h100v100H0z" style="fill:#000" transform="matrix(.28 0 0 .28 532 196)"/><path d="M0 0h100v100H0z" style="fill:#000" transform="matrix(.28 0 0 .28 672 196)"/><path d="M0 0h100v100H0z" style="fill:#000" transform="matrix(.28 0 0 .28 784 196)"/><path d="M0 0h100v100H0z" style="fill:#000" transform="matrix(.28 0 0 .28 812 196)"/><path d="M0 0h100v100H0z" style="fill:#000" transform="matrix(.28 0 0 .28 840 196)"/><path d="M0 0h100v100H0z" style="fill:#000" transform="matrix(.28 0 0 .28 280 224)"/><path d="M0 0h100v100H0z" style="fill:#000" transform="matrix(.28 0 0 .28 336 224)"/><path d="M0 0h100v100H0z" style="fill:#000" transform="matrix(.28 0 0 .28 392 224)"/><path d="M0 0h100v100H0z" style="fill:#000" transform="matrix(.28 0 0 .28 448 224)"/><path d="M0 0h100v100H0z" style="fill:#000" transform="matrix(.28 0 0 .28 504 224)"/><path d="M0 0h100v100H0z" style="fill:#000" transform="matrix(.28 0 0 .28 560 224)"/><path d="M0 0h100v100H0z" style="fill:#000" transform="matrix(.28 0 0 .28 616 224)"/><path d="M0 0h100v100H0z" style="fill:#000" transform="matrix(.28 0 0 .28 672 224)"/><path d="M0 0h100v100H0z" style="fill:#000" transform="matrix(.28 0 0 .28 728 224)"/><path d="M0 0h100v100H0z" style="fill:#000" transform="matrix(.28 0 0 .28 784 224)"/><path d="M0 0h100v100H0z" style="fill:#000" transform="matrix(.28 0 0 .28 840 224)"/><path d="M0 0h100v100H0z" style="fill:#000" transform="matrix(.28 0 0 .28 280 252)"/><path d="M0 0h100v100H0z" style="fill:#000" transform="matrix(.28 0 0 .28 308 252)"/><path d="M0 0h100v100H0z" style="fill:#000" transform="matrix(.28 0 0 .28 364 252)"/><path d="M0 0h100v100H0z" style="fill:#000" transform="matrix(.28 0 0 .28 392 252)"/><path d="M0 0h100v100H0z" style="fill:#000" transform="matrix(.28 0 0 .28 504 252)"/><path d="M0 0h100v100H0z" style="fill:#000" transform="matrix(.28 0 0 .28 644 252)"/><path d="M0 0h100v100H0z" style="fill:#000" transform="matrix(.28 0 0 .28 672 252)"/><path d="M0 0h100v100H0z" style="fill:#000" transform="matrix(.28 0 0 .28 700 252)"/><path d="M0 0h100v100H0z" style="fill:#000" transform="matrix(.28 0 0 .28 784 252)"/><path d="M0 0h100v100H0z" style="fill:#000" transform="matrix(.28 0 0 .28 840 252)"/><path d="M0 0h100v100H0z" style="fill:#000" transform="matrix(.28 0 0 .28 56 280)"/><path d="M0 0h100v100H0z" style="fill:#000" transform="matrix(.28 0 0 .28 112 280)"/><path d="M0 0h100v100H0z" style="fill:#000" transform="matrix(.28 0 0 .28 140 280)"/><path d="M0 0h100v100H0z" style="fill:#000" transform="matrix(.28 0 0 .28 168 280)"/><path d="M0 0h100v100H0z" style="fill:#000" transform="matrix(.28 0 0 .28 196 280)"/><path d="M0 0h100v100H0z" style="fill:#000" transform="matrix(.28 0 0 .28 224 280)"/><path d="M0 0h100v100H0z" style="fill:#000" transform="matrix(.28 0 0 .28 336 280)"/><path d="M0 0h100v100H0z" style="fill:#000" transform="matrix(.28 0 0 .28 364 280)"/><path d="M0 0h100v100H0z" style="fill:#000" transform="matrix(.28 0 0 .28 392 280)"/><path d="M0 0h100v100H0z" style="fill:#000" transform="matrix(.28 0 0 .28 476 280)"/><path d="M0 0h100v100H0z" style="fill:#000" transform="matrix(.28 0 0 .28 532 280)"/><path d="M0 0h100v100H0z" style="fill:#000" transform="matrix(.28 0 0 .28 672 280)"/><path d="M0 0h100v100H0z" style="fill:#000" transform="matrix(.28 0 0 .28 700 280)"/><path d="M0 0h100v100H0z" style="fill:#000" transform="matrix(.28 0 0 .28 756 280)"/><path d="M0 0h100v100H0z" style="fill:#000" transform="matrix(.28 0 0 .28 784 280)"/><path d="M0 0h100v100H0z" style="fill:#000" transform="matrix(.28 0 0 .28 840 280)"/><path d="M0 0h100v100H0z" style="fill:#000" transform="matrix(.28 0 0 .28 896 280)"/><path d="M0 0h100v100H0z" style="fill:#000" transform="matrix(.28 0 0 .28 924 280)"/><path d="M0 0h100v100H0z" style="fill:#000" transform="matrix(.28 0 0 .28 952 280)"/><path d="M0 0h100v100H0z" style="fill:#000" transform="matrix(.28 0 0 .28 980 280)"/><path d="M0 0h100v100H0z" style="fill:#000" transform="matrix(.28 0 0 .28 1008 280)"/><path d="M0 0h100v100H0z" style="fill:#000" transform="matrix(.28 0 0 .28 56 308)"/><path d="M0 0h100v100H0z" style="fill:#000" transform="matrix(.28 0 0 .28 140 308)"/><path d="M0 0h100v100H0z" style="fill:#000" transform="matrix(.28 0 0 .28 168 308)"/><path d="M0 0h100v100H0z" style="fill:#000" transform="matrix(.28 0 0 .28 196 308)"/><path d="M0 0h100v100H0z" style="fill:#000" transform="matrix(.28 0 0 .28 280 308)"/><path d="M0 0h100v100H0z" style="fill:#000" transform="matrix(.28 0 0 .28 336 308)"/><path d="M0 0h100v100H0z" style="fill:#000" transform="matrix(.28 0 0 .28 364 308)"/><path d="M0 0h100v100H0z" style="fill:#000" transform="matrix(.28 0 0 .28 392 308)"/><path d="M0 0h100v100H0z" style="fill:#000" transform="matrix(.28 0 0 .28 420 308)"/><path d="M0 0h100v100H0z" style="fill:#000" transform="matrix(.28 0 0 .28 448 308)"/><path d="M0 0h100v100H0z" style="fill:#000" transform="matrix(.28 0 0 .28 476 308)"/><path d="M0 0h100v100H0z" style="fill:#000" transform="matrix(.28 0 0 .28 504 308)"/><path d="M0 0h100v100H0z" style="fill:#000" transform="matrix(.28 0 0 .28 532 308)"/><path d="M0 0h100v100H0z" style="fill:#000" transform="matrix(.28 0 0 .28 560 308)"/><path d="M0 0h100v100H0z" style="fill:#000" transform="matrix(.28 0 0 .28 588 308)"/><path d="M0 0h100v100H0z" style="fill:#000" transform="matrix(.28 0 0 .28 644 308)"/><path d="M0 0h100v100H0z" style="fill:#000" transform="matrix(.28 0 0 .28 672 308)"/><path d="M0 0h100v100H0z" style="fill:#000" transform="matrix(.28 0 0 .28 700 308)"/><path d="M0 0h100v100H0z" style="fill:#000" transform="matrix(.28 0 0 .28 784 308)"/><path d="M0 0h100v100H0z" style="fill:#000" transform="matrix(.28 0 0 .28 840 308)"/><path d="M0 0h100v100H0z" style="fill:#000" transform="matrix(.28 0 0 .28 924 308)"/><path d="M0 0h100v100H0z" style="fill:#000" transform="matrix(.28 0 0 .28 1036 308)"/><path d="M0 0h100v100H0z" style="fill:#000" transform="matrix(.28 0 0 .28 56 336)"/><path d="M0 0h100v100H0z" style="fill:#000" transform="matrix(.28 0 0 .28 112 336)"/><path d="M0 0h100v100H0z" style="fill:#000" transform="matrix(.28 0 0 .28 224 336)"/><path d="M0 0h100v100H0z" style="fill:#000" transform="matrix(.28 0 0 .28 252 336)"/><path d="M0 0h100v100H0z" style="fill:#000" transform="matrix(.28 0 0 .28 308 336)"/><path d="M0 0h100v100H0z" style="fill:#000" transform="matrix(.28 0 0 .28 364 336)"/><path d="M0 0h100v100H0z" style="fill:#000" transform="matrix(.28 0 0 .28 392 336)"/><path d="M0 0h100v100H0z" style="fill:#000" transform="matrix(.28 0 0 .28 420 336)"/><path d="M0 0h100v100H0z" style="fill:#000" transform="matrix(.28 0 0 .28 448 336)"/><path d="M0 0h100v100H0z" style="fill:#000" transform="matrix(.28 0 0 .28 532 336)"/><path d="M0 0h100v100H0z" style="fill:#000" transform="matrix(.28 0 0 .28 616 336)"/><path d="M0 0h100v100H0z" style="fill:#000" transform="matrix(.28 0 0 .28 644 336)"/><path d="M0 0h100v100H0z" style="fill:#000" transform="matrix(.28 0 0 .28 672 336)"/><path d="M0 0h100v100H0z" style="fill:#000" transform="matrix(.28 0 0 .28 756 336)"/><path d="M0 0h100v100H0z" style="fill:#000" transform="matrix(.28 0 0 .28 784 336)"/><path d="M0 0h100v100H0z" style="fill:#000" transform="matrix(.28 0 0 .28 812 336)"/><path d="M0 0h100v100H0z" style="fill:#000" transform="matrix(.28 0 0 .28 896 336)"/><path d="M0 0h100v100H0z" style="fill:#000" transform="matrix(.28 0 0 .28 924 336)"/><path d="M0 0h100v100H0z" style="fill:#000" transform="matrix(.28 0 0 .28 980 336)"/><path d="M0 0h100v100H0z" style="fill:#000" transform="matrix(.28 0 0 .28 1036 336)"/><path d="M0 0h100v100H0z" style="fill:#000" transform="matrix(.28 0 0 .28 1064 336)"/><path d="M0 0h100v100H0z" style="fill:#000" transform="matrix(.28 0 0 .28 56 364)"/><path d="M0 0h100v100H0z" style="fill:#000" transform="matrix(.28 0 0 .28 112 364)"/><path d="M0 0h100v100H0z" style="fill:#000" transform="matrix(.28 0 0 .28 140 364)"/><path d="M0 0h100v100H0z" style="fill:#000" transform="matrix(.28 0 0 .28 364 364)"/><path d="M0 0h100v100H0z" style="fill:#000" transform="matrix(.28 0 0 .28 504 364)"/><path d="M0 0h100v100H0z" style="fill:#000" transform="matrix(.28 0 0 .28 616 364)"/><path d="M0 0h100v100H0z" style="fill:#000" transform="matrix(.28 0 0 .28 644 364)"/><path d="M0 0h100v100H0z" style="fill:#000" transform="matrix(.28 0 0 .28 784 364)"/><path d="M0 0h100v100H0z" style="fill:#000" transform="matrix(.28 0 0 .28 840 364)"/><path d="M0 0h100v100H0z" style="fill:#000" transform="matrix(.28 0 0 .28 896 364)"/><path d="M0 0h100v100H0z" style="fill:#000" transform="matrix(.28 0 0 .28 980 364)"/><path d="M0 0h100v100H0z" style="fill:#000" transform="matrix(.28 0 0 .28 1064 364)"/><path d="M0 0h100v100H0z" style="fill:#000" transform="matrix(.28 0 0 .28 56 392)"/><path d="M0 0h100v100H0z" style="fill:#000" transform="matrix(.28 0 0 .28 84 392)"/><path d="M0 0h100v100H0z" style="fill:#000" transform="matrix(.28 0 0 .28 140 392)"/><path d="M0 0h100v100H0z" style="fill:#000" transform="matrix(.28 0 0 .28 196 392)"/><path d="M0 0h100v100H0z" style="fill:#000" transform="matrix(.28 0 0 .28 224 392)"/><path d="M0 0h100v100H0z" style="fill:#000" transform="matrix(.28 0 0 .28 280 392)"/><path d="M0 0h100v100H0z" style="fill:#000" transform="matrix(.28 0 0 .28 392 392)"/><path d="M0 0h100v100H0z" style="fill:#000" transform="matrix(.28 0 0 .28 420 392)"/><path d="M0 0h100v100H0z" style="fill:#000" transform="matrix(.28 0 0 .28 504 392)"/><path d="M0 0h100v100H0z" style="fill:#000" transform="matrix(.28 0 0 .28 532 392)"/><path d="M0 0h100v100H0z" style="fill:#000" transform="matrix(.28 0 0 .28 616 392)"/><path d="M0 0h100v100H0z" style="fill:#000" transform="matrix(.28 0 0 .28 672 392)"/><path d="M0 0h100v100H0z" style="fill:#000" transform="matrix(.28 0 0 .28 728 392)"/><path d="M0 0h100v100H0z" style="fill:#000" transform="matrix(.28 0 0 .28 756 392)"/><path d="M0 0h100v100H0z" style="fill:#000" transform="matrix(.28 0 0 .28 784 392)"/><path d="M0 0h100v100H0z" style="fill:#000" transform="matrix(.28 0 0 .28 868 392)"/><path d="M0 0h100v100H0z" style="fill:#000" transform="matrix(.28 0 0 .28 896 392)"/><path d="M0 0h100v100H0z" style="fill:#000" transform="matrix(.28 0 0 .28 924 392)"/><path d="M0 0h100v100H0z" style="fill:#000" transform="matrix(.28 0 0 .28 952 392)"/><path d="M0 0h100v100H0z" style="fill:#000" transform="matrix(.28 0 0 .28 1008 392)"/><path d="M0 0h100v100H0z" style="fill:#000" transform="matrix(.28 0 0 .28 1036 392)"/><path d="M0 0h100v100H0z" style="fill:#000" transform="matrix(.28 0 0 .28 1064 392)"/><path d="M0 0h100v100H0z" style="fill:#000" transform="matrix(.28 0 0 .28 56 420)"/><path d="M0 0h100v100H0z" style="fill:#000" transform="matrix(.28 0 0 .28 84 420)"/><path d="M0 0h100v100H0z" style="fill:#000" transform="matrix(.28 0 0 .28 196 420)"/><path d="M0 0h100v100H0z" style="fill:#000" transform="matrix(.28 0 0 .28 252 420)"/><path d="M0 0h100v100H0z" style="fill:#000" transform="matrix(.28 0 0 .28 280 420)"/><path d="M0 0h100v100H0z" style="fill:#000" transform="matrix(.28 0 0 .28 308 420)"/><path d="M0 0h100v100H0z" style="fill:#000" transform="matrix(.28 0 0 .28 392 420)"/><path d="M0 0h100v100H0z" style="fill:#000" transform="matrix(.28 0 0 .28 420 420)"/><path d="M0 0h100v100H0z" style="fill:#000" transform="matrix(.28 0 0 .28 504 420)"/><path d="M0 0h100v100H0z" style="fill:#000" transform="matrix(.28 0 0 .28 532 420)"/><path d="M0 0h100v100H0z" style="fill:#000" transform="matrix(.28 0 0 .28 560 420)"/><path d="M0 0h100v100H0z" style="fill:#000" transform="matrix(.28 0 0 .28 588 420)"/><path d="M0 0h100v100H0z" style="fill:#000" transform="matrix(.28 0 0 .28 616 420)"/><path d="M0 0h100v100H0z" style="fill:#000" transform="matrix(.28 0 0 .28 644 420)"/><path d="M0 0h100v100H0z" style="fill:#000" transform="matrix(.28 0 0 .28 700 420)"/><path d="M0 0h100v100H0z" style="fill:#000" transform="matrix(.28 0 0 .28 728 420)"/><path d="M0 0h100v100H0z" style="fill:#000" transform="matrix(.28 0 0 .28 840 420)"/><path d="M0 0h100v100H0z" style="fill:#000" transform="matrix(.28 0 0 .28 924 420)"/><path d="M0 0h100v100H0z" style="fill:#000" transform="matrix(.28 0 0 .28 112 448)"/><path d="M0 0h100v100H0z" style="fill:#000" transform="matrix(.28 0 0 .28 140 448)"/><path d="M0 0h100v100H0z" style="fill:#000" transform="matrix(.28 0 0 .28 224 448)"/><path d="M0 0h100v100H0z" style="fill:#000" transform="matrix(.28 0 0 .28 420 448)"/><path d="M0 0h100v100H0z" style="fill:#000" transform="matrix(.28 0 0 .28 476 448)"/><path d="M0 0h100v100H0z" style="fill:#000" transform="matrix(.28 0 0 .28 756 448)"/><path d="M0 0h100v100H0z" style="fill:#000" transform="matrix(.28 0 0 .28 812 448)"/><path d="M0 0h100v100H0z" style="fill:#000" transform="matrix(.28 0 0 .28 840 448)"/><path d="M0 0h100v100H0z" style="fill:#000" transform="matrix(.28 0 0 .28 924 448)"/><path d="M0 0h100v100H0z" style="fill:#000" transform="matrix(.28 0 0 .28 952 448)"/><path d="M0 0h100v100H0z" style="fill:#000" transform="matrix(.28 0 0 .28 980 448)"/><path d="M0 0h100v100H0z" style="fill:#000" transform="matrix(.28 0 0 .28 1036 448)"/><path d="M0 0h100v100H0z" style="fill:#000" transform="matrix(.28 0 0 .28 1064 448)"/><path d="M0 0h100v100H0z" style="fill:#000" transform="matrix(.28 0 0 .28 56 476)"/><path d="M0 0h100v100H0z" style="fill:#000" transform="matrix(.28 0 0 .28 84 476)"/><path d="M0 0h100v100H0z" style="fill:#000" transform="matrix(.28 0 0 .28 140 476)"/><path d="M0 0h100v100H0z" style="fill:#000" transform="matrix(.28 0 0 .28 280 476)"/><path d="M0 0h100v100H0z" style="fill:#000" transform="matrix(.28 0 0 .28 308 476)"/><path d="M0 0h100v100H0z" style="fill:#000" transform="matrix(.28 0 0 .28 336 476)"/><path d="M0 0h100v100H0z" style="fill:#000" transform="matrix(.28 0 0 .28 364 476)"/><path d="M0 0h100v100H0z" style="fill:#000" transform="matrix(.28 0 0 .28 392 476)"/><path d="M0 0h100v100H0z" style="fill:#000" transform="matrix(.28 0 0 .28 420 476)"/><path d="M0 0h100v100H0z" style="fill:#000" transform="matrix(.28 0 0 .28 448 476)"/><path d="M0 0h100v100H0z" style="fill:#000" transform="matrix(.28 0 0 .28 476 476)"/><path d="M0 0h100v100H0z" style="fill:#000" transform="matrix(.28 0 0 .28 504 476)"/><path d="M0 0h100v100H0z" style="fill:#000" transform="matrix(.28 0 0 .28 560 476)"/><path d="M0 0h100v100H0z" style="fill:#000" transform="matrix(.28 0 0 .28 644 476)"/><path d="M0 0h100v100H0z" style="fill:#000" transform="matrix(.28 0 0 .28 672 476)"/><path d="M0 0h100v100H0z" style="fill:#000" transform="matrix(.28 0 0 .28 840 476)"/><path d="M0 0h100v100H0z" style="fill:#000" transform="matrix(.28 0 0 .28 868 476)"/><path d="M0 0h100v100H0z" style="fill:#000" transform="matrix(.28 0 0 .28 924 476)"/><path d="M0 0h100v100H0z" style="fill:#000" transform="matrix(.28 0 0 .28 952 476)"/><path d="M0 0h100v100H0z" style="fill:#000" transform="matrix(.28 0 0 .28 1036 476)"/><path d="M0 0h100v100H0z" style="fill:#000" transform="matrix(.28 0 0 .28 1064 476)"/><path d="M0 0h100v100H0z" style="fill:#000" transform="matrix(.28 0 0 .28 56 504)"/><path d="M0 0h100v100H0z" style="fill:#000" transform="matrix(.28 0 0 .28 84 504)"/><path d="M0 0h100v100H0z" style="fill:#000" transform="matrix(.28 0 0 .28 112 504)"/><path d="M0 0h100v100H0z" style="fill:#000" transform="matrix(.28 0 0 .28 140 504)"/><path d="M0 0h100v100H0z" style="fill:#000" transform="matrix(.28 0 0 .28 168 504)"/><path d="M0 0h100v100H0z" style="fill:#000" transform="matrix(.28 0 0 .28 224 504)"/><path d="M0 0h100v100H0z" style="fill:#000" transform="matrix(.28 0 0 .28 308 504)"/><path d="M0 0h100v100H0z" style="fill:#000" transform="matrix(.28 0 0 .28 392 504)"/><path d="M0 0h100v100H0z" style="fill:#000" transform="matrix(.28 0 0 .28 448 504)"/><path d="M0 0h100v100H0z" style="fill:#000" transform="matrix(.28 0 0 .28 504 504)"/><path d="M0 0h100v100H0z" style="fill:#000" transform="matrix(.28 0 0 .28 532 504)"/><path d="M0 0h100v100H0z" style="fill:#000" transform="matrix(.28 0 0 .28 560 504)"/><path d="M0 0h100v100H0z" style="fill:#000" transform="matrix(.28 0 0 .28 616 504)"/><path d="M0 0h100v100H0z" style="fill:#000" transform="matrix(.28 0 0 .28 700 504)"/><path d="M0 0h100v100H0z" style="fill:#000" transform="matrix(.28 0 0 .28 728 504)"/><path d="M0 0h100v100H0z" style="fill:#000" transform="matrix(.28 0 0 .28 756 504)"/><path d="M0 0h100v100H0z" style="fill:#000" transform="matrix(.28 0 0 .28 784 504)"/><path d="M0 0h100v100H0z" style="fill:#000" transform="matrix(.28 0 0 .28 812 504)"/><path d="M0 0h100v100H0z" style="fill:#000" transform="matrix(.28 0 0 .28 868 504)"/><path d="M0 0h100v100H0z" style="fill:#000" transform="matrix(.28 0 0 .28 896 504)"/><path d="M0 0h100v100H0z" style="fill:#000" transform="matrix(.28 0 0 .28 952 504)"/><path d="M0 0h100v100H0z" style="fill:#000" transform="matrix(.28 0 0 .28 1008 504)"/><path d="M0 0h100v100H0z" style="fill:#000" transform="matrix(.28 0 0 .28 56 532)"/><path d="M0 0h100v100H0z" style="fill:#000" transform="matrix(.28 0 0 .28 140 532)"/><path d="M0 0h100v100H0z" style="fill:#000" transform="matrix(.28 0 0 .28 280 532)"/><path d="M0 0h100v100H0z" style="fill:#000" transform="matrix(.28 0 0 .28 308 532)"/><path d="M0 0h100v100H0z" style="fill:#000" transform="matrix(.28 0 0 .28 364 532)"/><path d="M0 0h100v100H0z" style="fill:#000" transform="matrix(.28 0 0 .28 448 532)"/><path d="M0 0h100v100H0z" style="fill:#000" transform="matrix(.28 0 0 .28 476 532)"/><path d="M0 0h100v100H0z" style="fill:#000" transform="matrix(.28 0 0 .28 588 532)"/><path d="M0 0h100v100H0z" style="fill:#000" transform="matrix(.28 0 0 .28 616 532)"/><path d="M0 0h100v100H0z" style="fill:#000" transform="matrix(.28 0 0 .28 700 532)"/><path d="M0 0h100v100H0z" style="fill:#000" transform="matrix(.28 0 0 .28 756 532)"/><path d="M0 0h100v100H0z" style="fill:#000" transform="matrix(.28 0 0 .28 784 532)"/><path d="M0 0h100v100H0z" style="fill:#000" transform="matrix(.28 0 0 .28 924 532)"/><path d="M0 0h100v100H0z" style="fill:#000" transform="matrix(.28 0 0 .28 1008 532)"/><path d="M0 0h100v100H0z" style="fill:#000" transform="matrix(.28 0 0 .28 1036 532)"/><path d="M0 0h100v100H0z" style="fill:#000" transform="matrix(.28 0 0 .28 56 560)"/><path d="M0 0h100v100H0z" style="fill:#000" transform="matrix(.28 0 0 .28 112 560)"/><path d="M0 0h100v100H0z" style="fill:#000" transform="matrix(.28 0 0 .28 224 560)"/><path d="M0 0h100v100H0z" style="fill:#000" transform="matrix(.28 0 0 .28 252 560)"/><path d="M0 0h100v100H0z" style="fill:#000" transform="matrix(.28 0 0 .28 280 560)"/><path d="M0 0h100v100H0z" style="fill:#000" transform="matrix(.28 0 0 .28 336 560)"/><path d="M0 0h100v100H0z" style="fill:#000" transform="matrix(.28 0 0 .28 420 560)"/><path d="M0 0h100v100H0z" style="fill:#000" transform="matrix(.28 0 0 .28 448 560)"/><path d="M0 0h100v100H0z" style="fill:#000" transform="matrix(.28 0 0 .28 476 560)"/><path d="M0 0h100v100H0z" style="fill:#000" transform="matrix(.28 0 0 .28 504 560)"/><path d="M0 0h100v100H0z" style="fill:#000" transform="matrix(.28 0 0 .28 672 560)"/><path d="M0 0h100v100H0z" style="fill:#000" transform="matrix(.28 0 0 .28 728 560)"/><path d="M0 0h100v100H0z" style="fill:#000" transform="matrix(.28 0 0 .28 784 560)"/><path d="M0 0h100v100H0z" style="fill:#000" transform="matrix(.28 0 0 .28 812 560)"/><path d="M0 0h100v100H0z" style="fill:#000" transform="matrix(.28 0 0 .28 868 560)"/><path d="M0 0h100v100H0z" style="fill:#000" transform="matrix(.28 0 0 .28 924 560)"/><path d="M0 0h100v100H0z" style="fill:#000" transform="matrix(.28 0 0 .28 1036 560)"/><path d="M0 0h100v100H0z" style="fill:#000" transform="matrix(.28 0 0 .28 1064 560)"/><path d="M0 0h100v100H0z" style="fill:#000" transform="matrix(.28 0 0 .28 84 588)"/><path d="M0 0h100v100H0z" style="fill:#000" transform="matrix(.28 0 0 .28 280 588)"/><path d="M0 0h100v100H0z" style="fill:#000" transform="matrix(.28 0 0 .28 308 588)"/><path d="M0 0h100v100H0z" style="fill:#000" transform="matrix(.28 0 0 .28 336 588)"/><path d="M0 0h100v100H0z" style="fill:#000" transform="matrix(.28 0 0 .28 420 588)"/><path d="M0 0h100v100H0z" style="fill:#000" transform="matrix(.28 0 0 .28 476 588)"/><path d="M0 0h100v100H0z" style="fill:#000" transform="matrix(.28 0 0 .28 560 588)"/><path d="M0 0h100v100H0z" style="fill:#000" transform="matrix(.28 0 0 .28 588 588)"/><path d="M0 0h100v100H0z" style="fill:#000" transform="matrix(.28 0 0 .28 644 588)"/><path d="M0 0h100v100H0z" style="fill:#000" transform="matrix(.28 0 0 .28 672 588)"/><path d="M0 0h100v100H0z" style="fill:#000" transform="matrix(.28 0 0 .28 700 588)"/><path d="M0 0h100v100H0z" style="fill:#000" transform="matrix(.28 0 0 .28 812 588)"/><path d="M0 0h100v100H0z" style="fill:#000" transform="matrix(.28 0 0 .28 840 588)"/><path d="M0 0h100v100H0z" style="fill:#000" transform="matrix(.28 0 0 .28 896 588)"/><path d="M0 0h100v100H0z" style="fill:#000" transform="matrix(.28 0 0 .28 924 588)"/><path d="M0 0h100v100H0z" style="fill:#000" transform="matrix(.28 0 0 .28 952 588)"/><path d="M0 0h100v100H0z" style="fill:#000" transform="matrix(.28 0 0 .28 1064 588)"/><path d="M0 0h100v100H0z" style="fill:#000" transform="matrix(.28 0 0 .28 140 616)"/><path d="M0 0h100v100H0z" style="fill:#000" transform="matrix(.28 0 0 .28 196 616)"/><path d="M0 0h100v100H0z" style="fill:#000" transform="matrix(.28 0 0 .28 224 616)"/><path d="M0 0h100v100H0z" style="fill:#000" transform="matrix(.28 0 0 .28 280 616)"/><path d="M0 0h100v100H0z" style="fill:#000" transform="matrix(.28 0 0 .28 308 616)"/><path d="M0 0h100v100H0z" style="fill:#000" transform="matrix(.28 0 0 .28 420 616)"/><path d="M0 0h100v100H0z" style="fill:#000" transform="matrix(.28 0 0 .28 448 616)"/><path d="M0 0h100v100H0z" style="fill:#000" transform="matrix(.28 0 0 .28 476 616)"/><path d="M0 0h100v100H0z" style="fill:#000" transform="matrix(.28 0 0 .28 532 616)"/><path d="M0 0h100v100H0z" style="fill:#000" transform="matrix(.28 0 0 .28 616 616)"/><path d="M0 0h100v100H0z" style="fill:#000" transform="matrix(.28 0 0 .28 672 616)"/><path d="M0 0h100v100H0z" style="fill:#000" transform="matrix(.28 0 0 .28 700 616)"/><path d="M0 0h100v100H0z" style="fill:#000" transform="matrix(.28 0 0 .28 728 616)"/><path d="M0 0h100v100H0z" style="fill:#000" transform="matrix(.28 0 0 .28 756 616)"/><path d="M0 0h100v100H0z" style="fill:#000" transform="matrix(.28 0 0 .28 784 616)"/><path d="M0 0h100v100H0z" style="fill:#000" transform="matrix(.28 0 0 .28 812 616)"/><path d="M0 0h100v100H0z" style="fill:#000" transform="matrix(.28 0 0 .28 868 616)"/><path d="M0 0h100v100H0z" style="fill:#000" transform="matrix(.28 0 0 .28 896 616)"/><path d="M0 0h100v100H0z" style="fill:#000" transform="matrix(.28 0 0 .28 952 616)"/><path d="M0 0h100v100H0z" style="fill:#000" transform="matrix(.28 0 0 .28 1008 616)"/><path d="M0 0h100v100H0z" style="fill:#000" transform="matrix(.28 0 0 .28 84 644)"/><path d="M0 0h100v100H0z" style="fill:#000" transform="matrix(.28 0 0 .28 112 644)"/><path d="M0 0h100v100H0z" style="fill:#000" transform="matrix(.28 0 0 .28 140 644)"/><path d="M0 0h100v100H0z" style="fill:#000" transform="matrix(.28 0 0 .28 196 644)"/><path d="M0 0h100v100H0z" style="fill:#000" transform="matrix(.28 0 0 .28 308 644)"/><path d="M0 0h100v100H0z" style="fill:#000" transform="matrix(.28 0 0 .28 364 644)"/><path d="M0 0h100v100H0z" style="fill:#000" transform="matrix(.28 0 0 .28 392 644)"/><path d="M0 0h100v100H0z" style="fill:#000" transform="matrix(.28 0 0 .28 504 644)"/><path d="M0 0h100v100H0z" style="fill:#000" transform="matrix(.28 0 0 .28 532 644)"/><path d="M0 0h100v100H0z" style="fill:#000" transform="matrix(.28 0 0 .28 560 644)"/><path d="M0 0h100v100H0z" style="fill:#000" transform="matrix(.28 0 0 .28 588 644)"/><path d="M0 0h100v100H0z" style="fill:#000" transform="matrix(.28 0 0 .28 616 644)"/><path d="M0 0h100v100H0z" style="fill:#000" transform="matrix(.28 0 0 .28 644 644)"/><path d="M0 0h100v100H0z" style="fill:#000" transform="matrix(.28 0 0 .28 672 644)"/><path d="M0 0h100v100H0z" style="fill:#000" transform="matrix(.28 0 0 .28 700 644)"/><path d="M0 0h100v100H0z" style="fill:#000" transform="matrix(.28 0 0 .28 840 644)"/><path d="M0 0h100v100H0z" style="fill:#000" transform="matrix(.28 0 0 .28 980 644)"/><path d="M0 0h100v100H0z" style="fill:#000" transform="matrix(.28 0 0 .28 140 672)"/><path d="M0 0h100v100H0z" style="fill:#000" transform="matrix(.28 0 0 .28 168 672)"/><path d="M0 0h100v100H0z" style="fill:#000" transform="matrix(.28 0 0 .28 224 672)"/><path d="M0 0h100v100H0z" style="fill:#000" transform="matrix(.28 0 0 .28 392 672)"/><path d="M0 0h100v100H0z" style="fill:#000" transform="matrix(.28 0 0 .28 448 672)"/><path d="M0 0h100v100H0z" style="fill:#000" transform="matrix(.28 0 0 .28 476 672)"/><path d="M0 0h100v100H0z" style="fill:#000" transform="matrix(.28 0 0 .28 504 672)"/><path d="M0 0h100v100H0z" style="fill:#000" transform="matrix(.28 0 0 .28 616 672)"/><path d="M0 0h100v100H0z" style="fill:#000" transform="matrix(.28 0 0 .28 672 672)"/><path d="M0 0h100v100H0z" style="fill:#000" transform="matrix(.28 0 0 .28 756 672)"/><path d="M0 0h100v100H0z" style="fill:#000" transform="matrix(.28 0 0 .28 784 672)"/><path d="M0 0h100v100H0z" style="fill:#000" transform="matrix(.28 0 0 .28 812 672)"/><path d="M0 0h100v100H0z" style="fill:#000" transform="matrix(.28 0 0 .28 868 672)"/><path d="M0 0h100v100H0z" style="fill:#000" transform="matrix(.28 0 0 .28 896 672)"/><path d="M0 0h100v100H0z" style="fill:#000" transform="matrix(.28 0 0 .28 924 672)"/><path d="M0 0h100v100H0z" style="fill:#000" transform="matrix(.28 0 0 .28 952 672)"/><path d="M0 0h100v100H0z" style="fill:#000" transform="matrix(.28 0 0 .28 980 672)"/><path d="M0 0h100v100H0z" style="fill:#000" transform="matrix(.28 0 0 .28 1036 672)"/><path d="M0 0h100v100H0z" style="fill:#000" transform="matrix(.28 0 0 .28 1064 672)"/><path d="M0 0h100v100H0z" style="fill:#000" transform="matrix(.28 0 0 .28 56 700)"/><path d="M0 0h100v100H0z" style="fill:#000" transform="matrix(.28 0 0 .28 84 700)"/><path d="M0 0h100v100H0z" style="fill:#000" transform="matrix(.28 0 0 .28 112 700)"/><path d="M0 0h100v100H0z" style="fill:#000" transform="matrix(.28 0 0 .28 252 700)"/><path d="M0 0h100v100H0z" style="fill:#000" transform="matrix(.28 0 0 .28 280 700)"/><path d="M0 0h100v100H0z" style="fill:#000" transform="matrix(.28 0 0 .28 364 700)"/><path d="M0 0h100v100H0z" style="fill:#000" transform="matrix(.28 0 0 .28 392 700)"/><path d="M0 0h100v100H0z" style="fill:#000" transform="matrix(.28 0 0 .28 420 700)"/><path d="M0 0h100v100H0z" style="fill:#000" transform="matrix(.28 0 0 .28 448 700)"/><path d="M0 0h100v100H0z" style="fill:#000" transform="matrix(.28 0 0 .28 476 700)"/><path d="M0 0h100v100H0z" style="fill:#000" transform="matrix(.28 0 0 .28 644 700)"/><path d="M0 0h100v100H0z" style="fill:#000" transform="matrix(.28 0 0 .28 700 700)"/><path d="M0 0h100v100H0z" style="fill:#000" transform="matrix(.28 0 0 .28 840 700)"/><path d="M0 0h100v100H0z" style="fill:#000" transform="matrix(.28 0 0 .28 924 700)"/><path d="M0 0h100v100H0z" style="fill:#000" transform="matrix(.28 0 0 .28 952 700)"/><path d="M0 0h100v100H0z" style="fill:#000" transform="matrix(.28 0 0 .28 1036 700)"/><path d="M0 0h100v100H0z" style="fill:#000" transform="matrix(.28 0 0 .28 84 728)"/><path d="M0 0h100v100H0z" style="fill:#000" transform="matrix(.28 0 0 .28 140 728)"/><path d="M0 0h100v100H0z" style="fill:#000" transform="matrix(.28 0 0 .28 168 728)"/><path d="M0 0h100v100H0z" style="fill:#000" transform="matrix(.28 0 0 .28 224 728)"/><path d="M0 0h100v100H0z" style="fill:#000" transform="matrix(.28 0 0 .28 252 728)"/><path d="M0 0h100v100H0z" style="fill:#000" transform="matrix(.28 0 0 .28 336 728)"/><path d="M0 0h100v100H0z" style="fill:#000" transform="matrix(.28 0 0 .28 364 728)"/><path d="M0 0h100v100H0z" style="fill:#000" transform="matrix(.28 0 0 .28 420 728)"/><path d="M0 0h100v100H0z" style="fill:#000" transform="matrix(.28 0 0 .28 616 728)"/><path d="M0 0h100v100H0z" style="fill:#000" transform="matrix(.28 0 0 .28 672 728)"/><path d="M0 0h100v100H0z" style="fill:#000" transform="matrix(.28 0 0 .28 700 728)"/><path d="M0 0h100v100H0z" style="fill:#000" transform="matrix(.28 0 0 .28 728 728)"/><path d="M0 0h100v100H0z" style="fill:#000" transform="matrix(.28 0 0 .28 756 728)"/><path d="M0 0h100v100H0z" style="fill:#000" transform="matrix(.28 0 0 .28 784 728)"/><path d="M0 0h100v100H0z" style="fill:#000" transform="matrix(.28 0 0 .28 868 728)"/><path d="M0 0h100v100H0z" style="fill:#000" transform="matrix(.28 0 0 .28 896 728)"/><path d="M0 0h100v100H0z" style="fill:#000" transform="matrix(.28 0 0 .28 952 728)"/><path d="M0 0h100v100H0z" style="fill:#000" transform="matrix(.28 0 0 .28 1008 728)"/><path d="M0 0h100v100H0z" style="fill:#000" transform="matrix(.28 0 0 .28 1036 728)"/><path d="M0 0h100v100H0z" style="fill:#000" transform="matrix(.28 0 0 .28 56 756)"/><path d="M0 0h100v100H0z" style="fill:#000" transform="matrix(.28 0 0 .28 84 756)"/><path d="M0 0h100v100H0z" style="fill:#000" transform="matrix(.28 0 0 .28 140 756)"/><path d="M0 0h100v100H0z" style="fill:#000" transform="matrix(.28 0 0 .28 168 756)"/><path d="M0 0h100v100H0z" style="fill:#000" transform="matrix(.28 0 0 .28 196 756)"/><path d="M0 0h100v100H0z" style="fill:#000" transform="matrix(.28 0 0 .28 252 756)"/><path d="M0 0h100v100H0z" style="fill:#000" transform="matrix(.28 0 0 .28 308 756)"/><path d="M0 0h100v100H0z" style="fill:#000" transform="matrix(.28 0 0 .28 364 756)"/><path d="M0 0h100v100H0z" style="fill:#000" transform="matrix(.28 0 0 .28 392 756)"/><path d="M0 0h100v100H0z" style="fill:#000" transform="matrix(.28 0 0 .28 420 756)"/><path d="M0 0h100v100H0z" style="fill:#000" transform="matrix(.28 0 0 .28 476 756)"/><path d="M0 0h100v100H0z" style="fill:#000" transform="matrix(.28 0 0 .28 504 756)"/><path d="M0 0h100v100H0z" style="fill:#000" transform="matrix(.28 0 0 .28 588 756)"/><path d="M0 0h100v100H0z" style="fill:#000" transform="matrix(.28 0 0 .28 616 756)"/><path d="M0 0h100v100H0z" style="fill:#000" transform="matrix(.28 0 0 .28 644 756)"/><path d="M0 0h100v100H0z" style="fill:#000" transform="matrix(.28 0 0 .28 700 756)"/><path d="M0 0h100v100H0z" style="fill:#000" transform="matrix(.28 0 0 .28 728 756)"/><path d="M0 0h100v100H0z" style="fill:#000" transform="matrix(.28 0 0 .28 840 756)"/><path d="M0 0h100v100H0z" style="fill:#000" transform="matrix(.28 0 0 .28 924 756)"/><path d="M0 0h100v100H0z" style="fill:#000" transform="matrix(.28 0 0 .28 56 784)"/><path d="M0 0h100v100H0z" style="fill:#000" transform="matrix(.28 0 0 .28 112 784)"/><path d="M0 0h100v100H0z" style="fill:#000" transform="matrix(.28 0 0 .28 224 784)"/><path d="M0 0h100v100H0z" style="fill:#000" transform="matrix(.28 0 0 .28 308 784)"/><path d="M0 0h100v100H0z" style="fill:#000" transform="matrix(.28 0 0 .28 616 784)"/><path d="M0 0h100v100H0z" style="fill:#000" transform="matrix(.28 0 0 .28 784 784)"/><path d="M0 0h100v100H0z" style="fill:#000" transform="matrix(.28 0 0 .28 812 784)"/><path d="M0 0h100v100H0z" style="fill:#000" transform="matrix(.28 0 0 .28 840 784)"/><path d="M0 0h100v100H0z" style="fill:#000" transform="matrix(.28 0 0 .28 896 784)"/><path d="M0 0h100v100H0z" style="fill:#000" transform="matrix(.28 0 0 .28 952 784)"/><path d="M0 0h100v100H0z" style="fill:#000" transform="matrix(.28 0 0 .28 1036 784)"/><path d="M0 0h100v100H0z" style="fill:#000" transform="matrix(.28 0 0 .28 1064 784)"/><path d="M0 0h100v100H0z" style="fill:#000" transform="matrix(.28 0 0 .28 56 812)"/><path d="M0 0h100v100H0z" style="fill:#000" transform="matrix(.28 0 0 .28 112 812)"/><path d="M0 0h100v100H0z" style="fill:#000" transform="matrix(.28 0 0 .28 140 812)"/><path d="M0 0h100v100H0z" style="fill:#000" transform="matrix(.28 0 0 .28 252 812)"/><path d="M0 0h100v100H0z" style="fill:#000" transform="matrix(.28 0 0 .28 280 812)"/><path d="M0 0h100v100H0z" style="fill:#000" transform="matrix(.28 0 0 .28 308 812)"/><path d="M0 0h100v100H0z" style="fill:#000" transform="matrix(.28 0 0 .28 336 812)"/><path d="M0 0h100v100H0z" style="fill:#000" transform="matrix(.28 0 0 .28 420 812)"/><path d="M0 0h100v100H0z" style="fill:#000" transform="matrix(.28 0 0 .28 504 812)"/><path d="M0 0h100v100H0z" style="fill:#000" transform="matrix(.28 0 0 .28 616 812)"/><path d="M0 0h100v100H0z" style="fill:#000" transform="matrix(.28 0 0 .28 644 812)"/><path d="M0 0h100v100H0z" style="fill:#000" transform="matrix(.28 0 0 .28 784 812)"/><path d="M0 0h100v100H0z" style="fill:#000" transform="matrix(.28 0 0 .28 840 812)"/><path d="M0 0h100v100H0z" style="fill:#000" transform="matrix(.28 0 0 .28 868 812)"/><path d="M0 0h100v100H0z" style="fill:#000" transform="matrix(.28 0 0 .28 896 812)"/><path d="M0 0h100v100H0z" style="fill:#000" transform="matrix(.28 0 0 .28 924 812)"/><path d="M0 0h100v100H0z" style="fill:#000" transform="matrix(.28 0 0 .28 952 812)"/><path d="M0 0h100v100H0z" style="fill:#000" transform="matrix(.28 0 0 .28 1036 812)"/><path d="M0 0h100v100H0z" style="fill:#000" transform="matrix(.28 0 0 .28 1064 812)"/><path d="M0 0h100v100H0z" style="fill:#000" transform="matrix(.28 0 0 .28 56 840)"/><path d="M0 0h100v100H0z" style="fill:#000" transform="matrix(.28 0 0 .28 196 840)"/><path d="M0 0h100v100H0z" style="fill:#000" transform="matrix(.28 0 0 .28 224 840)"/><path d="M0 0h100v100H0z" style="fill:#000" transform="matrix(.28 0 0 .28 252 840)"/><path d="M0 0h100v100H0z" style="fill:#000" transform="matrix(.28 0 0 .28 280 840)"/><path d="M0 0h100v100H0z" style="fill:#000" transform="matrix(.28 0 0 .28 392 840)"/><path d="M0 0h100v100H0z" style="fill:#000" transform="matrix(.28 0 0 .28 532 840)"/><path d="M0 0h100v100H0z" style="fill:#000" transform="matrix(.28 0 0 .28 588 840)"/><path d="M0 0h100v100H0z" style="fill:#000" transform="matrix(.28 0 0 .28 672 840)"/><path d="M0 0h100v100H0z" style="fill:#000" transform="matrix(.28 0 0 .28 728 840)"/><path d="M0 0h100v100H0z" style="fill:#000" transform="matrix(.28 0 0 .28 756 840)"/><path d="M0 0h100v100H0z" style="fill:#000" transform="matrix(.28 0 0 .28 840 840)"/><path d="M0 0h100v100H0z" style="fill:#000" transform="matrix(.28 0 0 .28 868 840)"/><path d="M0 0h100v100H0z" style="fill:#000" transform="matrix(.28 0 0 .28 896 840)"/><path d="M0 0h100v100H0z" style="fill:#000" transform="matrix(.28 0 0 .28 924 840)"/><path d="M0 0h100v100H0z" style="fill:#000" transform="matrix(.28 0 0 .28 952 840)"/><path d="M0 0h100v100H0z" style="fill:#000" transform="matrix(.28 0 0 .28 1008 840)"/><path d="M0 0h100v100H0z" style="fill:#000" transform="matrix(.28 0 0 .28 1064 840)"/><path d="M0 0h100v100H0z" style="fill:#000" transform="matrix(.28 0 0 .28 280 868)"/><path d="M0 0h100v100H0z" style="fill:#000" transform="matrix(.28 0 0 .28 364 868)"/><path d="M0 0h100v100H0z" style="fill:#000" transform="matrix(.28 0 0 .28 420 868)"/><path d="M0 0h100v100H0z" style="fill:#000" transform="matrix(.28 0 0 .28 504 868)"/><path d="M0 0h100v100H0z" style="fill:#000" transform="matrix(.28 0 0 .28 588 868)"/><path d="M0 0h100v100H0z" style="fill:#000" transform="matrix(.28 0 0 .28 616 868)"/><path d="M0 0h100v100H0z" style="fill:#000" transform="matrix(.28 0 0 .28 700 868)"/><path d="M0 0h100v100H0z" style="fill:#000" transform="matrix(.28 0 0 .28 756 868)"/><path d="M0 0h100v100H0z" style="fill:#000" transform="matrix(.28 0 0 .28 812 868)"/><path d="M0 0h100v100H0z" style="fill:#000" transform="matrix(.28 0 0 .28 840 868)"/><path d="M0 0h100v100H0z" style="fill:#000" transform="matrix(.28 0 0 .28 952 868)"/><path d="M0 0h100v100H0z" style="fill:#000" transform="matrix(.28 0 0 .28 980 868)"/><path d="M0 0h100v100H0z" style="fill:#000" transform="matrix(.28 0 0 .28 1036 868)"/><path d="M0 0h100v100H0z" style="fill:#000" transform="matrix(.28 0 0 .28 308 896)"/><path d="M0 0h100v100H0z" style="fill:#000" transform="matrix(.28 0 0 .28 336 896)"/><path d="M0 0h100v100H0z" style="fill:#000" transform="matrix(.28 0 0 .28 392 896)"/><path d="M0 0h100v100H0z" style="fill:#000" transform="matrix(.28 0 0 .28 476 896)"/><path d="M0 0h100v100H0z" style="fill:#000" transform="matrix(.28 0 0 .28 504 896)"/><path d="M0 0h100v100H0z" style="fill:#000" transform="matrix(.28 0 0 .28 616 896)"/><path d="M0 0h100v100H0z" style="fill:#000" transform="matrix(.28 0 0 .28 644 896)"/><path d="M0 0h100v100H0z" style="fill:#000" transform="matrix(.28 0 0 .28 840 896)"/><path d="M0 0h100v100H0z" style="fill:#000" transform="matrix(.28 0 0 .28 896 896)"/><path d="M0 0h100v100H0z" style="fill:#000" transform="matrix(.28 0 0 .28 952 896)"/><path d="M0 0h100v100H0z" style="fill:#000" transform="matrix(.28 0 0 .28 1008 896)"/><path d="M0 0h100v100H0z" style="fill:#000" transform="matrix(.28 0 0 .28 1064 896)"/><path d="M0 0h100v100H0z" style="fill:#000" transform="matrix(.28 0 0 .28 280 924)"/><path d="M0 0h100v100H0z" style="fill:#000" transform="matrix(.28 0 0 .28 420 924)"/><path d="M0 0h100v100H0z" style="fill:#000" transform="matrix(.28 0 0 .28 448 924)"/><path d="M0 0h100v100H0z" style="fill:#000" transform="matrix(.28 0 0 .28 476 924)"/><path d="M0 0h100v100H0z" style="fill:#000" transform="matrix(.28 0 0 .28 588 924)"/><path d="M0 0h100v100H0z" style="fill:#000" transform="matrix(.28 0 0 .28 616 924)"/><path d="M0 0h100v100H0z" style="fill:#000" transform="matrix(.28 0 0 .28 644 924)"/><path d="M0 0h100v100H0z" style="fill:#000" transform="matrix(.28 0 0 .28 700 924)"/><path d="M0 0h100v100H0z" style="fill:#000" transform="matrix(.28 0 0 .28 728 924)"/><path d="M0 0h100v100H0z" style="fill:#000" transform="matrix(.28 0 0 .28 784 924)"/><path d="M0 0h100v100H0z" style="fill:#000" transform="matrix(.28 0 0 .28 812 924)"/><path d="M0 0h100v100H0z" style="fill:#000" transform="matrix(.28 0 0 .28 840 924)"/><path d="M0 0h100v100H0z" style="fill:#000" transform="matrix(.28 0 0 .28 952 924)"/><path d="M0 0h100v100H0z" style="fill:#000" transform="matrix(.28 0 0 .28 980 924)"/><path d="M0 0h100v100H0z" style="fill:#000" transform="matrix(.28 0 0 .28 1036 924)"/><path d="M0 0h100v100H0z" style="fill:#000" transform="matrix(.28 0 0 .28 280 952)"/><path d="M0 0h100v100H0z" style="fill:#000" transform="matrix(.28 0 0 .28 308 952)"/><path d="M0 0h100v100H0z" style="fill:#000" transform="matrix(.28 0 0 .28 392 952)"/><path d="M0 0h100v100H0z" style="fill:#000" transform="matrix(.28 0 0 .28 448 952)"/><path d="M0 0h100v100H0z" style="fill:#000" transform="matrix(.28 0 0 .28 476 952)"/><path d="M0 0h100v100H0z" style="fill:#000" transform="matrix(.28 0 0 .28 588 952)"/><path d="M0 0h100v100H0z" style="fill:#000" transform="matrix(.28 0 0 .28 616 952)"/><path d="M0 0h100v100H0z" style="fill:#000" transform="matrix(.28 0 0 .28 672 952)"/><path d="M0 0h100v100H0z" style="fill:#000" transform="matrix(.28 0 0 .28 728 952)"/><path d="M0 0h100v100H0z" style="fill:#000" transform="matrix(.28 0 0 .28 756 952)"/><path d="M0 0h100v100H0z" style="fill:#000" transform="matrix(.28 0 0 .28 784 952)"/><path d="M0 0h100v100H0z" style="fill:#000" transform="matrix(.28 0 0 .28 812 952)"/><path d="M0 0h100v100H0z" style="fill:#000" transform="matrix(.28 0 0 .28 840 952)"/><path d="M0 0h100v100H0z" style="fill:#000" transform="matrix(.28 0 0 .28 868 952)"/><path d="M0 0h100v100H0z" style="fill:#000" transform="matrix(.28 0 0 .28 896 952)"/><path d="M0 0h100v100H0z" style="fill:#000" transform="matrix(.28 0 0 .28 924 952)"/><path d="M0 0h100v100H0z" style="fill:#000" transform="matrix(.28 0 0 .28 952 952)"/><path d="M0 0h100v100H0z" style="fill:#000" transform="matrix(.28 0 0 .28 1008 952)"/><path d="M0 0h100v100H0z" style="fill:#000" transform="matrix(.28 0 0 .28 1064 952)"/><path d="M0 0h100v100H0z" style="fill:#000" transform="matrix(.28 0 0 .28 280 980)"/><path d="M0 0h100v100H0z" style="fill:#000" transform="matrix(.28 0 0 .28 308 980)"/><path d="M0 0h100v100H0z" style="fill:#000" transform="matrix(.28 0 0 .28 364 980)"/><path d="M0 0h100v100H0z" style="fill:#000" transform="matrix(.28 0 0 .28 420 980)"/><path d="M0 0h100v100H0z" style="fill:#000" transform="matrix(.28 0 0 .28 448 980)"/><path d="M0 0h100v100H0z" style="fill:#000" transform="matrix(.28 0 0 .28 476 980)"/><path d="M0 0h100v100H0z" style="fill:#000" transform="matrix(.28 0 0 .28 588 980)"/><path d="M0 0h100v100H0z" style="fill:#000" transform="matrix(.28 0 0 .28 644 980)"/><path d="M0 0h100v100H0z" style="fill:#000" transform="matrix(.28 0 0 .28 700 980)"/><path d="M0 0h100v100H0z" style="fill:#000" transform="matrix(.28 0 0 .28 756 980)"/><path d="M0 0h100v100H0z" style="fill:#000" transform="matrix(.28 0 0 .28 868 980)"/><path d="M0 0h100v100H0z" style="fill:#000" transform="matrix(.28 0 0 .28 896 980)"/><path d="M0 0h100v100H0z" style="fill:#000" transform="matrix(.28 0 0 .28 952 980)"/><path d="M0 0h100v100H0z" style="fill:#000" transform="matrix(.28 0 0 .28 980 980)"/><path d="M0 0h100v100H0z" style="fill:#000" transform="matrix(.28 0 0 .28 1008 980)"/><path d="M0 0h100v100H0z" style="fill:#000" transform="matrix(.28 0 0 .28 1036 980)"/><path d="M0 0h100v100H0z" style="fill:#000" transform="matrix(.28 0 0 .28 1064 980)"/><path d="M0 0h100v100H0z" style="fill:#000" transform="matrix(.28 0 0 .28 280 1008)"/><path d="M0 0h100v100H0z" style="fill:#000" transform="matrix(.28 0 0 .28 308 1008)"/><path d="M0 0h100v100H0z" style="fill:#000" transform="matrix(.28 0 0 .28 364 1008)"/><path d="M0 0h100v100H0z" style="fill:#000" transform="matrix(.28 0 0 .28 392 1008)"/><path d="M0 0h100v100H0z" style="fill:#000" transform="matrix(.28 0 0 .28 476 1008)"/><path d="M0 0h100v100H0z" style="fill:#000" transform="matrix(.28 0 0 .28 504 1008)"/><path d="M0 0h100v100H0z" style="fill:#000" transform="matrix(.28 0 0 .28 644 1008)"/><path d="M0 0h100v100H0z" style="fill:#000" transform="matrix(.28 0 0 .28 672 1008)"/><path d="M0 0h100v100H0z" style="fill:#000" transform="matrix(.28 0 0 .28 756 1008)"/><path d="M0 0h100v100H0z" style="fill:#000" transform="matrix(.28 0 0 .28 784 1008)"/><path d="M0 0h100v100H0z" style="fill:#000" transform="matrix(.28 0 0 .28 812 1008)"/><path d="M0 0h100v100H0z" style="fill:#000" transform="matrix(.28 0 0 .28 840 1008)"/><path d="M0 0h100v100H0z" style="fill:#000" transform="matrix(.28 0 0 .28 868 1008)"/><path d="M0 0h100v100H0z" style="fill:#000" transform="matrix(.28 0 0 .28 980 1008)"/><path d="M0 0h100v100H0z" style="fill:#000" transform="matrix(.28 0 0 .28 1008 1008)"/><path d="M0 0h100v100H0z" style="fill:#000" transform="matrix(.28 0 0 .28 1036 1008)"/><path d="M0 0h100v100H0z" style="fill:#000" transform="matrix(.28 0 0 .28 1064 1008)"/><path d="M0 0h100v100H0z" style="fill:#000" transform="matrix(.28 0 0 .28 392 1036)"/><path d="M0 0h100v100H0z" style="fill:#000" transform="matrix(.28 0 0 .28 448 1036)"/><path d="M0 0h100v100H0z" style="fill:#000" transform="matrix(.28 0 0 .28 560 1036)"/><path d="M0 0h100v100H0z" style="fill:#000" transform="matrix(.28 0 0 .28 616 1036)"/><path d="M0 0h100v100H0z" style="fill:#000" transform="matrix(.28 0 0 .28 644 1036)"/><path d="M0 0h100v100H0z" style="fill:#000" transform="matrix(.28 0 0 .28 672 1036)"/><path d="M0 0h100v100H0z" style="fill:#000" transform="matrix(.28 0 0 .28 700 1036)"/><path d="M0 0h100v100H0z" style="fill:#000" transform="matrix(.28 0 0 .28 728 1036)"/><path d="M0 0h100v100H0z" style="fill:#000" transform="matrix(.28 0 0 .28 812 1036)"/><path d="M0 0h100v100H0z" style="fill:#000" transform="matrix(.28 0 0 .28 840 1036)"/><path d="M0 0h100v100H0z" style="fill:#000" transform="matrix(.28 0 0 .28 868 1036)"/><path d="M0 0h100v100H0z" style="fill:#000" transform="matrix(.28 0 0 .28 952 1036)"/><path d="M0 0h100v100H0z" style="fill:#000" transform="matrix(.28 0 0 .28 980 1036)"/><path d="M0 0h100v100H0z" style="fill:#000" transform="matrix(.28 0 0 .28 1064 1036)"/><path d="M0 0h100v100H0z" style="fill:#000" transform="matrix(.28 0 0 .28 280 1064)"/><path d="M0 0h100v100H0z" style="fill:#000" transform="matrix(.28 0 0 .28 420 1064)"/><path d="M0 0h100v100H0z" style="fill:#000" transform="matrix(.28 0 0 .28 476 1064)"/><path d="M0 0h100v100H0z" style="fill:#000" transform="matrix(.28 0 0 .28 532 1064)"/><path d="M0 0h100v100H0z" style="fill:#000" transform="matrix(.28 0 0 .28 588 1064)"/><path d="M0 0h100v100H0z" style="fill:#000" transform="matrix(.28 0 0 .28 728 1064)"/><path d="M0 0h100v100H0z" style="fill:#000" transform="matrix(.28 0 0 .28 756 1064)"/><path d="M0 0h100v100H0z" style="fill:#000" transform="matrix(.28 0 0 .28 784 1064)"/><path d="M0 0h100v100H0z" style="fill:#000" transform="matrix(.28 0 0 .28 868 1064)"/><path d="M0 0h100v100H0z" style="fill:#000" transform="matrix(.28 0 0 .28 952 1064)"/><path d="M0 0h100v100H0z" style="fill:#000" transform="matrix(.28 0 0 .28 980 1064)"/><path d="M0 0h100v100H0z" style="fill:#000" transform="matrix(.28 0 0 .28 1008 1064)"/><path d="M0 0h100v100H0z" style="fill:#000" transform="matrix(.28 0 0 .28 1036 1064)"/><path d="M0 0h100v100H0z" style="fill:#000" transform="matrix(.28 0 0 .28 1064 1064)"/><g style="fill:#000"><path d="M15 15h70v70H15z" style="fill:none" transform="matrix(1.96 0 0 1.96 56 56)"/><path d="M222.6 56H56v196h196V56h-29.4zm0 166.6H85.4V85.4h137.2v137.2z"/></g><g style="fill:#000"><path d="M15 15h70v70H15z" style="fill:none" transform="matrix(1.96 0 0 1.96 896 56)"/><path d="M1062.6 56H896v196h196V56h-29.4zm0 166.6H925.4V85.4h137.2v137.2z"/></g><g style="fill:#000"><path d="M15 15h70v70H15z" style="fill:none" transform="matrix(1.96 0 0 1.96 56 896)"/><path d="M222.6 896H56v196h196V896h-29.4zm0 166.6H85.4V925.4h137.2v137.2z"/></g><path d="M0 0h100v100H0z" style="fill:#000" transform="matrix(.84 0 0 .84 112 112)"/><path d="M0 0h100v100H0z" style="fill:#000" transform="matrix(.84 0 0 .84 952 112)"/><path d="M0 0h100v100H0z" style="fill:#000" transform="matrix(.84 0 0 .84 112 952)"/></svg>