<svg xmlns="http://www.w3.org/2000/svg" width="37" height="38" fill="none"><path fill="#009C37" d="M18.5 22.384c3.402 0 6.167-2.766 6.167-6.167 0-3.4-2.765-6.166-6.166-6.166a6.173 6.173 0 0 0-6.167 6.166 6.173 6.173 0 0 0 6.167 6.167Zm0-9.25c1.701 0 3.084 1.383 3.084 3.083 0 1.7-1.383 3.084-3.083 3.084a3.086 3.086 0 0 1-3.084-3.084c0-1.7 1.383-3.083 3.084-3.083Z"/><path fill="#009C37" d="M17.605 34.43a1.538 1.538 0 0 0 1.789 0c.468-.33 11.484-8.284 11.439-18.213 0-6.8-5.533-12.333-12.333-12.333S6.166 9.417 6.166 16.21c-.045 9.936 10.97 17.89 11.44 18.22ZM18.5 6.968c5.1 0 9.25 4.149 9.25 9.258.032 6.842-6.765 12.985-9.25 15-2.484-2.016-9.283-8.161-9.25-15.008 0-5.101 4.148-9.25 9.25-9.25Z"/></svg>