<svg width="36" height="36" viewBox="0 0 36 36" fill="none" xmlns="http://www.w3.org/2000/svg">
<path d="M24.8493 32.9985C24.8568 32.9985 24.8838 32.9985 24.8913 32.9985C25.6833 32.9985 26.4318 32.6865 26.9988 32.1195L31.0668 28.0515C31.6533 27.465 31.6533 26.517 31.0668 25.9305L25.0668 19.9305C24.4803 19.344 23.5323 19.344 22.9458 19.9305L20.5548 22.3215C19.4463 21.9915 17.3778 21.2415 16.0668 19.9305C14.7558 18.6195 14.0058 16.551 13.6758 15.4425L16.0668 13.0515C16.6533 12.465 16.6533 11.517 16.0668 10.9305L10.0668 4.9305C9.50433 4.368 8.50833 4.368 7.94583 4.9305L3.87932 8.9985C3.30932 9.5685 2.98832 10.3515 3.00032 11.151C3.03482 13.287 3.60032 20.706 9.44733 26.553C15.2943 32.4 22.7133 32.964 24.8493 32.9985ZM9.00783 8.112L12.8868 11.991L10.9473 13.9305C10.5888 14.2875 10.4358 14.8035 10.5408 15.2985C10.5768 15.471 11.4573 19.5615 13.9473 22.0515C16.4373 24.5415 20.5278 25.422 20.7003 25.458C21.1998 25.563 21.7113 25.41 22.0683 25.0515L24.0078 23.112L27.8868 26.991L24.8778 29.9985C23.0058 29.967 16.6008 29.4645 11.5683 24.4305C6.51933 19.3815 6.03032 12.954 6.00032 11.1195L9.00783 8.112ZM29.9988 16.4985H32.9988C32.9988 8.8035 27.1893 3 19.4838 3V6C25.5768 6 29.9988 10.4145 29.9988 16.4985Z" fill="white"/>
<path d="M19.498 12C22.6525 12 23.998 13.3455 23.998 16.5H26.998C26.998 11.6625 24.3355 9 19.498 9V12Z" fill="white"/>
</svg>