<svg width="24" height="24" viewBox="0 0 24 24" fill="none" xmlns="http://www.w3.org/2000/svg">
<path d="M12 18C16 18 17 14 17 14H7C7 14 8 18 12 18Z" fill="#32724E"/>
<path d="M12 22C17.514 22 22 17.514 22 12C22 6.486 17.514 2 12 2C6.486 2 2 6.486 2 12C2 17.514 6.486 22 12 22ZM12 4C16.411 4 20 7.589 20 12C20 16.411 16.411 20 12 20C7.589 20 4 16.411 4 12C4 7.589 7.589 4 12 4Z" fill="#32724E"/>
<path d="M8.53455 12.6341L10.5846 10.5511C11.1716 9.95408 11.1636 9.02508 10.5666 8.43308C10.2786 8.15008 9.89955 7.99608 9.50355 8.00008C9.13055 8.00308 8.77555 8.14508 8.50155 8.39908C8.22255 8.14808 7.86455 8.01208 7.49155 8.01508C7.09555 8.01908 6.71955 8.17908 6.43455 8.46708C5.84855 9.06708 5.85555 9.99708 6.45355 10.5841L8.53455 12.6341ZM15.5346 12.6341L17.5846 10.5511C18.1716 9.95408 18.1636 9.02508 17.5666 8.43308C17.2786 8.15008 16.8996 7.99608 16.5036 8.00008C16.1306 8.00308 15.7756 8.14508 15.5016 8.39908C15.2226 8.14808 14.8646 8.01208 14.4916 8.01508C14.0956 8.01808 13.7196 8.17808 13.4336 8.46608C12.8476 9.06608 12.8546 9.99608 13.4526 10.5831L15.5346 12.6341Z" fill="#32724E"/>
</svg>