<svg xmlns="http://www.w3.org/2000/svg" width="39" height="39" fill="none" viewBox="0 0 20 20"><path fill="#FEFEFE" fill-rule="evenodd" d="M9.4 5.38c0 .18.1.36.29.54 1.58 1.17 3.16 2.34 4.73 3.51l-5.16 6.96c-.36.47-1.04.57-1.51.22l-3.44-2.56c-.48-.35-.58-1.03-.23-1.51L9.4 5.38Zm2.7 3.95.51.38-4.27 5.76-.52-.38 4.28-5.76Zm-1.29-.96.51.38-4.28 5.76-.51-.38 4.28-5.76Zm-1.3-.97.51.38-4.28 5.76-.51-.38L9.51 7.4ZM10.67 5.85l3.63 2.69c.29.22.69.16.9-.13l.01-.01c.21-.28.15-.69-.14-.9l-3.1-2.31a.653.653 0 0 0-.91.14l-.39.52Z" clip-rule="evenodd"/><path fill="#FEFEFE" fill-rule="evenodd" d="M15.28 6.05c.33.24.38.59.18.93L12.23 4.6c-.86-.46-1.53-.09-2.08.86-.15-.12-.31-.31-.29-.45.08-.73.89-1.25 1.68-1.26.7 0 1.11.34 1.67.74.63.46 1.4 1.06 2.07 1.56Z" clip-rule="evenodd"/></svg>