<svg width="39" height="39" viewBox="0 0 20 20" fill="none" xmlns="http://www.w3.org/2000/svg"><path d="M5.77965 15.48L4.63965 13.21L5.77965 10.94L4.63965 8.68L5.77965 6.41L4.63965 4.14H6.90965L8.04965 6.41L6.90965 8.68L8.04965 10.94L6.90965 13.21L8.04965 15.48H5.77965Z" fill="#FEFEFE"></path><path d="M9.74937 15.48L8.60938 13.21L9.74937 10.94L8.60938 8.68L9.74937 6.41L8.60938 4.14H10.8794L12.0194 6.41L10.8794 8.68L12.0194 10.94L10.8794 13.21L12.0194 15.48H9.74937Z" fill="#FEFEFE"></path><path d="M13.7201 15.48L12.5801 13.21L13.7201 10.94L12.5801 8.68L13.7201 6.41L12.5801 4.14H14.8501L15.9801 6.41L14.8501 8.68L15.9801 10.94L14.8501 13.21L15.9801 15.48H13.7201Z" fill="#FEFEFE"></path></svg>