<svg width="39" height="39" viewBox="0 0 20 20" fill="none" xmlns="http://www.w3.org/2000/svg"><path d="M15.6495 9.26C15.7795 7.91 14.4195 7.02 12.4095 6.63L11.9495 7.56H11.0895L11.6195 6.52C11.3495 6.48 11.0795 6.46 10.7895 6.44L10.2395 7.56H9.38953L9.95953 6.42H9.98953H9.95953C9.65953 6.42 9.36953 6.43 9.08953 6.45L8.52953 7.56H7.67953L8.19953 6.53C5.81953 6.82 4.12953 7.75 4.27953 9.26H15.6495ZM4.26953 12.11V12.68C4.26953 13.3 4.77953 13.81 5.40953 13.81H14.5095C15.1295 13.81 15.6495 13.3 15.6495 12.68V12.11H4.26953ZM6.16953 10.97C6.47953 10.97 6.61953 11.05 6.82953 11.18C7.07953 11.33 7.42953 11.54 8.05953 11.54C8.69953 11.54 9.04953 11.33 9.30953 11.18C9.51953 11.04 9.63953 10.97 9.95953 10.97C10.2695 10.97 10.4095 11.05 10.6095 11.18C10.8695 11.33 11.2195 11.54 11.8495 11.54C12.4895 11.54 12.8395 11.33 13.0995 11.18C13.2995 11.04 13.4295 10.97 13.7495 10.97C14.0595 10.97 14.1895 11.05 14.3995 11.18C14.6595 11.33 15.0095 11.53 15.6395 11.54V10.41C15.6395 10.41 15.1895 10.32 14.9795 10.2C14.7195 10.04 14.3695 9.83 13.7395 9.83C13.1095 9.83 12.7595 10.04 12.4995 10.2C12.2895 10.33 12.1595 10.4 11.8395 10.4C11.5295 10.4 11.3995 10.32 11.1895 10.2C10.9295 10.04 10.5795 9.83 9.94953 9.83C9.31953 9.83 8.96953 10.04 8.70953 10.2C8.49953 10.33 8.36953 10.4 8.05953 10.4C7.73953 10.4 7.60953 10.32 7.39953 10.2C7.14953 10.04 6.78953 9.83 6.15953 9.83C5.52953 9.83 5.17953 10.04 4.91953 10.2C4.70953 10.33 4.57953 10.4 4.26953 10.4V11.54C4.89953 11.54 5.24953 11.33 5.51953 11.18C5.72953 11.04 5.85953 10.97 6.16953 10.97Z" fill="#FEFEFE"></path></svg>