<svg xmlns="http://www.w3.org/2000/svg" width="39" height="39" fill="none" viewBox="0 0 20 20"><path fill="#FEFEFE" d="m15.52 4.16.01.01c.33.34.33.88 0 1.22L5.71 15.2c-.33.34-.88.34-1.21 0l-.01-.01a.845.845 0 0 1 0-1.21l9.81-9.82c.34-.33.88-.33 1.22 0ZM15.28 9.2l-.9.9c-.21-.26-.54-.43-.9-.43V11l-.84.84a1.12 1.12 0 0 0-.9-.43v1.33l-.84.83c-.21-.26-.53-.43-.89-.43v1.33l-.59.58c-.63.5-1.54.48-2.14-.08l-.04-.04 8.04-8.04c.63.64.63 1.67 0 2.31ZM12.75 4.36 4.71 12.4c-.63-.64-.63-1.67 0-2.31l.9-.9c.21.27.54.43.9.43V8.29l.84-.83c.21.26.53.43.9.43V6.56l.84-.84c.21.26.53.43.89.43V4.83l.59-.59c.63-.5 1.54-.48 2.14.08l.04.04Z"/></svg>