<svg width="24" height="24" viewBox="0 0 24 24" fill="#077855" xmlns="http://www.w3.org/2000/svg"><g clip-path="url(#clip0_528_5853)"><path d="M18.6133 0H5.38715C2.41204 0 0.000244141 2.4118 0.000244141 5.38691V18.6131C0.000244141 21.5882 2.41204 24 5.38715 24H18.6133C21.5884 24 24.0002 21.5882 24.0002 18.6131V5.38691C24.0002 2.4118 21.5884 0 18.6133 0Z" fill="inherit"></path><path d="M8.31333 4.15662H15.7951C15.9614 4.23975 16.2108 4.23975 16.3771 4.32288C17.1067 4.44112 17.7888 4.7605 18.3469 5.24512C18.9049 5.72974 19.3167 6.3604 19.5361 7.06621C19.6588 7.47295 19.7423 7.89051 19.7854 8.31318V15.6287C19.6666 16.5559 19.3243 17.4403 18.7879 18.2058C18.3277 18.7389 17.7508 19.1588 17.102 19.4327C16.4532 19.7067 15.75 19.8273 15.047 19.7853H8.81212C7.69945 19.8393 6.60544 19.4845 5.73626 18.7877C5.20772 18.3311 4.79061 17.7596 4.51685 17.1169C4.24309 16.4743 4.11992 15.7776 4.15677 15.0801V9.26088C4.14304 8.84349 4.17088 8.42578 4.2399 8.01391C4.32385 7.16164 4.67427 6.3575 5.24137 5.71578C5.80848 5.07405 6.56341 4.62739 7.39889 4.43926L8.31333 4.15662ZM5.73626 12.0541V15.2962C5.70082 15.7091 5.75605 16.1247 5.89809 16.514C6.04014 16.9032 6.26555 17.2568 6.55857 17.5498C6.85158 17.8428 7.20509 18.0682 7.59437 18.2102C7.98364 18.3523 8.39926 18.4075 8.81212 18.3721C10.9735 18.4552 13.1349 18.4552 15.2964 18.3721C17.2084 18.3721 18.2891 17.2082 18.3722 15.2962C18.4553 13.1348 18.4553 10.9734 18.3722 8.81197C18.3938 8.40237 18.3289 7.99281 18.182 7.60988C18.035 7.22694 17.8092 6.87917 17.5192 6.58914C17.2292 6.29911 16.8814 6.07329 16.4985 5.92634C16.1155 5.77938 15.706 5.71457 15.2964 5.73611C13.1349 5.65298 10.9735 5.65298 8.81212 5.73611C8.39926 5.70067 7.98364 5.7559 7.59437 5.89794C7.20509 6.03998 6.85158 6.2654 6.55857 6.55841C6.26555 6.85142 6.04014 7.20494 5.89809 7.59422C5.75605 7.98349 5.70082 8.39911 5.73626 8.81197V12.0541Z" fill="white"></path><path d="M8.01404 12.0873C8.01623 11.0077 8.4461 9.97286 9.20955 9.20942C9.97299 8.44598 11.0078 8.01611 12.0875 8.01392C13.1612 8.03518 14.1849 8.47117 14.9443 9.23053C15.7036 9.98989 16.1396 11.0137 16.1609 12.0873C16.1587 13.167 15.7288 14.2018 14.9654 14.9653C14.202 15.7287 13.1671 16.1586 12.0875 16.1608C11.0138 16.1395 9.99001 15.7035 9.23065 14.9442C8.4713 14.1848 8.03531 13.161 8.01404 12.0873ZM12.0875 9.51028C11.5825 9.50207 11.0867 9.64482 10.6634 9.92023C10.2401 10.1956 9.90874 10.5912 9.71171 11.0561C9.51467 11.5211 9.46096 12.0343 9.55746 12.53C9.65397 13.0257 9.89629 13.4812 10.2534 13.8383C10.6104 14.1954 11.066 14.4377 11.5617 14.5342C12.0574 14.6307 12.5706 14.577 13.0356 14.38C13.5005 14.1829 13.896 13.8516 14.1715 13.4283C14.4469 13.005 14.5896 12.5091 14.5814 12.0042C14.5814 11.3428 14.3187 10.7084 13.851 10.2407C13.3832 9.77303 12.7489 9.51028 12.0875 9.51028Z" fill="white"></path><path d="M15.2464 7.84766C15.2418 7.7154 15.2644 7.58361 15.3129 7.46047C15.3614 7.33734 15.4347 7.22551 15.5283 7.13193C15.6219 7.03836 15.7337 6.96504 15.8568 6.91655C15.98 6.86806 16.1118 6.84544 16.244 6.85008C16.5028 6.86759 16.7465 6.97831 16.9299 7.16173C17.1134 7.34516 17.2241 7.58885 17.2416 7.84766C17.2416 8.11223 17.1365 8.36597 16.9494 8.55305C16.7623 8.74013 16.5086 8.84523 16.244 8.84523C15.9794 8.84523 15.7257 8.74013 15.5386 8.55305C15.3515 8.36597 15.2464 8.11223 15.2464 7.84766Z" fill="white"></path></g><defs><clipPath id="clip0_528_5853"><rect width="24" height="24" fill="white" transform="translate(0.000244141)"></rect></clipPath></defs></svg>