<svg xmlns="http://www.w3.org/2000/svg" width="41" height="40" fill="none"><g fill="#009C37" clip-path="url(#a)"><path d="M28.855 9.61h-.006c-.416 0-.816.166-1.11.461l-8.964 9.035L15.42 15.7a1.563 1.563 0 0 0-1.103-.466h-.01c-.411 0-.806.163-1.099.452l-6.004 5.937a1.562 1.562 0 1 0 2.197 2.222l4.892-4.836 3.366 3.416c.293.297.692.465 1.11.465h.003c.416 0 .815-.166 1.109-.461l8.96-9.031 2.407 2.46a1.563 1.563 0 0 0 2.234-2.185l-3.516-3.594a1.563 1.563 0 0 0-1.111-.47Z"/><path d="M38.772 18.906c.863 0 1.562-.7 1.562-1.562V4.766c0-.863-.7-1.563-1.563-1.563H21.897v-1.64a1.562 1.562 0 1 0-3.125 0v1.64H1.896c-.862 0-1.562.7-1.562 1.563v20.468a6.257 6.257 0 0 0 6.25 6.25h12.188v5.391h-4.688a1.562 1.562 0 1 0 0 3.125h12.422a1.562 1.562 0 1 0 0-3.125h-4.61v-5.39h12.188a6.257 6.257 0 0 0 6.25-6.25 1.562 1.562 0 1 0-3.125 0 3.129 3.129 0 0 1-3.125 3.124h-27.5a3.129 3.129 0 0 1-3.125-3.125V6.328h33.75v11.016c0 .863.7 1.562 1.563 1.562Z"/></g><defs><clipPath id="a"><path fill="#fff" d="M.334 0h40v40h-40z"/></clipPath></defs></svg>