<svg xmlns="http://www.w3.org/2000/svg" width="41" height="41" fill="none"><g fill="#009C37" clip-path="url(#a)"><path d="M20.591 40.2c-.24 0-.479-.056-.699-.165-.183-.092-4.528-2.295-9.074-7.237a38.431 38.431 0 0 1-6.506-9.652c-2.063-4.382-3.288-9.18-3.64-14.26a1.563 1.563 0 0 1 1.456-1.668C4.99 7.03 7.232 4.634 7.232 1.762c0-.863.7-1.563 1.562-1.563h23.75c.863 0 1.563.7 1.563 1.563 0 2.87 2.24 5.266 5.1 5.456a1.562 1.562 0 0 1 1.453 1.706c-.535 5.641-2.092 10.917-4.63 15.682a1.563 1.563 0 0 1-2.758-1.47c2.125-3.99 3.507-8.379 4.114-13.063a8.632 8.632 0 0 1-6.261-6.749H10.214a8.63 8.63 0 0 1-6.302 6.76c.821 7.882 3.885 14.774 9.119 20.504 3.133 3.429 6.204 5.452 7.551 6.253 1.474-.897 5.039-3.306 8.51-7.483a1.562 1.562 0 1 1 2.403 1.996c-4.939 5.946-9.98 8.565-10.192 8.674a1.56 1.56 0 0 1-.712.172Z"/><path d="M21.798 31.744a1.563 1.563 0 0 0-.304-2.19 29.289 29.289 0 0 1-3.8-3.439c-3.404-3.67-5.713-7.98-6.873-12.827a14.991 14.991 0 0 0 4.04-4.774 1.563 1.563 0 0 0-2.756-1.473 11.781 11.781 0 0 1-3.894 4.274 1.563 1.563 0 0 0-.67 1.616c1.19 5.817 3.835 10.968 7.862 15.31a32.39 32.39 0 0 0 4.207 3.807 1.56 1.56 0 0 0 2.188-.305Z"/></g><defs><clipPath id="a"><path fill="#fff" d="M.668.2h40v40h-40z"/></clipPath></defs></svg>