<svg width="24" height="24" viewBox="0 0 24 24" fill="none" xmlns="http://www.w3.org/2000/svg">
<path d="M12 2C6.486 2 2 6.486 2 12C2 17.514 6.486 22 12 22C17.514 22 22 17.514 22 12C22 6.486 17.514 2 12 2ZM12 20C7.589 20 4 16.411 4 12C4 7.589 7.589 4 12 4C16.411 4 20 7.589 20 12C20 16.411 16.411 20 12 20Z" fill="#32724E"/>
<path d="M14.8284 14.8281C14.6434 15.0121 14.4444 15.1771 14.2364 15.3171C14.0194 15.4631 13.7914 15.5871 13.5564 15.6861C13.3124 15.7891 13.0604 15.8671 12.8074 15.9191C12.2764 16.0271 11.7204 16.0271 11.1914 15.9191C10.9374 15.8671 10.6854 15.7891 10.4414 15.6861C10.2074 15.5871 9.97844 15.4631 9.76244 15.3171C9.55344 15.1761 9.35444 15.0121 9.16944 14.8281C8.98844 14.6471 8.82344 14.4481 8.68144 14.2361L7.02344 15.3551C7.23844 15.6731 7.48544 15.9721 7.75744 16.2441C8.03044 16.5171 8.32944 16.7641 8.64444 16.9751C8.96744 17.1931 9.31044 17.3791 9.66444 17.5281C10.0294 17.6821 10.4084 17.8001 10.7924 17.8781C11.1884 17.9591 11.5954 18.0001 11.9994 18.0001C12.4034 18.0001 12.8104 17.9591 13.2074 17.8781C13.5904 17.8001 13.9694 17.6821 14.3344 17.5281C14.6884 17.3791 15.0304 17.1931 15.3554 16.9751C15.6684 16.7631 15.9674 16.5171 16.2414 16.2441C16.5134 15.9731 16.7614 15.6731 16.9754 15.3551L15.3174 14.2361C15.1744 14.4481 15.0094 14.6471 14.8284 14.8281Z" fill="#32724E"/>
<path d="M8.5 12C9.32843 12 10 11.3284 10 10.5C10 9.67157 9.32843 9 8.5 9C7.67157 9 7 9.67157 7 10.5C7 11.3284 7.67157 12 8.5 12Z" fill="#32724E"/>
<path d="M15.493 11.986C16.3176 11.986 16.986 11.3176 16.986 10.493C16.986 9.66844 16.3176 9 15.493 9C14.6684 9 14 9.66844 14 10.493C14 11.3176 14.6684 11.986 15.493 11.986Z" fill="#32724E"/>
</svg>